<?xml version="1.0" encoding="UTF-8" standalone="no"?>
<!-- Created with Inkscape (http://www.inkscape.org/) -->

<svg
   xmlns:dc="http://purl.org/dc/elements/1.1/"
   xmlns:cc="http://creativecommons.org/ns#"
   xmlns:rdf="http://www.w3.org/1999/02/22-rdf-syntax-ns#"
   xmlns:svg="http://www.w3.org/2000/svg"
   xmlns="http://www.w3.org/2000/svg"
   xmlns:sodipodi="http://sodipodi.sourceforge.net/DTD/sodipodi-0.dtd"
   xmlns:inkscape="http://www.inkscape.org/namespaces/inkscape"
   width="210mm"
   height="297mm"
   viewBox="0 0 210 297"
   version="1.1"
   id="svg8"
   inkscape:version="0.92.4 5da689c313, 2019-01-14"
   sodipodi:docname="cloud1svg.svg">
  <defs
     id="defs2" />
  <sodipodi:namedview
     id="base"
     pagecolor="#ffffff"
     bordercolor="#666666"
     borderopacity="1.0"
     inkscape:pageopacity="0.0"
     inkscape:pageshadow="2"
     inkscape:zoom="0.98994949"
     inkscape:cx="11.100286"
     inkscape:cy="1025.348"
     inkscape:document-units="mm"
     inkscape:current-layer="layer2"
     showgrid="false"
     inkscape:window-width="1920"
     inkscape:window-height="1057"
     inkscape:window-x="0"
     inkscape:window-y="0"
     inkscape:window-maximized="1" />
  <metadata
     id="metadata5">
    <rdf:RDF>
      <cc:Work
         rdf:about="">
        <dc:format>image/svg+xml</dc:format>
        <dc:type
           rdf:resource="http://purl.org/dc/dcmitype/StillImage" />
        <dc:title />
      </cc:Work>
    </rdf:RDF>
  </metadata>
  <g
     inkscape:label="Layer 1"
     inkscape:groupmode="layer"
     id="layer1"
     style="display:inline"
     sodipodi:insensitive="true">
    <path
       style="opacity:1;fill:#f6f9ff;fill-opacity:1;stroke:#000000;stroke-width:0.46499997;stroke-linecap:round;stroke-linejoin:miter;stroke-miterlimit:4;stroke-dasharray:none;stroke-opacity:1"
       d="M 29.80072,0.59805983 C 23.896413,0.59804316 19.109992,4.2177061 19.1099,8.6828374 c 0.0036,0.3875437 0.04398,0.774392 0.120922,1.1575521 -0.218112,-0.012499 -0.436851,-0.019738 -0.655772,-0.021704 -4.945068,2.54e-5 -9.095478,0.8846145 -9.733035,4.0612495 -0.09098,1.015672 -0.4756205,2.554182 0.3581908,3.465203 -0.9309002,0.465119 -0.7454003,0.674555 -3.3205052,1.29368 -3.1648269,0.472462 -5.34545264,2.183842 -5.34541004,4.87774 -4.26e-5,2.693897 2.39319454,4.877749 5.34541004,4.877739 2.2015945,-0.0021 4.1765644,-1.235779 4.9754054,-3.107822 1.218436,2.239848 3.594992,3.639764 6.183085,3.642156 1.169744,-0.0024 2.320332,-0.291531 3.347085,-0.841293 1.428155,1.376529 3.313012,2.144474 5.272545,2.148189 1.780522,-0.0019 3.505708,-0.634958 4.883423,-1.792139 1.319464,1.157131 2.876838,1.776155 4.471045,1.777153 2.239399,-0.0049 4.373991,-1.227444 5.881812,-3.368786 1.738447,1.242518 3.876656,1.918901 6.078699,1.92288 3.677801,-0.0024 7.053379,-1.872067 8.774141,-4.860168 0.307256,0.220631 0.641919,0.335595 0.980819,0.336928 1.291658,2.28e-4 2.338842,-1.615204 2.338874,-3.608048 -3.2e-5,-1.992845 -1.047216,-3.608274 -2.338874,-3.608046 -0.07787,0.0011 -0.155652,0.0081 -0.233061,0.02119 -0.680863,-2.113135 -2.169904,-3.92869 -4.192508,-5.111832 0.141666,-0.566275 0.214265,-1.144651 0.216522,-1.724959 1.8e-5,-4.4284338 -4.00889,-8.0183353 -8.953974,-8.0181157 -1.903868,0.00347 -3.756938,0.5503182 -5.290116,1.5611451 C 36.253368,1.769665 33.122032,0.60023603 29.80072,0.59806803 Z"
       id="path822"
       inkscape:connector-curvature="0"
       sodipodi:nodetypes="ccccccccccccccccccccccccccc" />
  </g>
  <g
     inkscape:groupmode="layer"
     id="layer2"
     inkscape:label="Layer 2"
     style="display:inline">
    <path
       style="opacity:1;fill:#e4e4e4;fill-opacity:1;stroke:none;stroke-width:0.46499997;stroke-linecap:round;stroke-linejoin:miter;stroke-miterlimit:4;stroke-dasharray:none;stroke-opacity:1"
       d="m 6.0096293,28.234839 c 2.3433361,-0.315111 4.1293167,-1.288935 4.8454767,-3.444458 1.194811,2.481987 3.589085,3.899624 6.177179,3.902016 1.169744,-0.0024 2.373485,-0.326968 3.400238,-0.876729 1.428155,1.376529 3.035436,2.156283 5.219392,2.177719 1.981322,-0.0019 3.535239,-0.646773 4.895235,-1.868917 1.372617,1.369744 2.865026,1.852931 4.459234,1.853931 1.719682,-0.03443 3.688909,-0.518739 5.84047,-3.451468 1.797506,1.390164 4.018398,2.031109 6.22044,2.035088 4.81173,-0.333129 7.147873,-2.29729 8.679648,-5.143648 0.0192,0.01379 0.03851,0.02717 0.05107,0.04004 0.01255,0.01287 0.01835,0.02524 0.01052,0.03701 -0.0078,0.01177 -0.02928,0.02295 -0.07122,0.03344 -0.04194,0.01049 -0.104371,0.02029 -0.194154,0.02931 -0.08978,0.009 -0.206921,0.01726 -0.358277,0.02463 -0.151356,0.0074 -0.336931,0.01387 -0.563591,0.01941 -0.226659,0.0055 -2.526025,1.711003 -2.841718,1.714523 -0.315693,0.0035 -4.128368,1.139928 -4.546825,1.141228 -0.418457,0.0013 -5.899913,-1.179675 -6.434865,-1.180745 -0.534951,-0.0011 -4.67511,2.311704 -5.340286,2.308104 -0.665177,-0.0036 -4.044732,-0.244806 -4.853864,-0.251206 -0.404566,-0.0032 -1.1933,1.144524 -4.649275,0.792545 -3.623147,-0.369004 -4.898343,-1.567337 -5.381752,-1.571997 -0.966817,-0.0093 -4.23652,1.066542 -5.658235,-0.268805 -0.829709,-0.779304 -4.019719,-2.688033 -4.019719,-2.688033 0,0 -3.8766944,2.423685 -5.3989524,2.404475 -1.522257,-0.01921 -3.7675024,-0.98515 -4.69916765,-1.905733 0.40672485,2.765288 3.10016665,4.106468 5.21299835,4.13827 z"
       id="path822-6"
       inkscape:connector-curvature="0"
       sodipodi:nodetypes="ccccccccccsssssssssssssscscc" />
  </g>
</svg>
