<?xml version="1.0" encoding="UTF-8" standalone="no"?>
<!-- Created with Inkscape (http://www.inkscape.org/) -->

<svg
   xmlns:dc="http://purl.org/dc/elements/1.1/"
   xmlns:cc="http://creativecommons.org/ns#"
   xmlns:rdf="http://www.w3.org/1999/02/22-rdf-syntax-ns#"
   xmlns:svg="http://www.w3.org/2000/svg"
   xmlns="http://www.w3.org/2000/svg"
   xmlns:xlink="http://www.w3.org/1999/xlink"
   xmlns:sodipodi="http://sodipodi.sourceforge.net/DTD/sodipodi-0.dtd"
   xmlns:inkscape="http://www.inkscape.org/namespaces/inkscape"
   width="210mm"
   height="297mm"
   viewBox="0 0 210 297"
   version="1.1"
   id="svg824"
   inkscape:version="0.92.4 5da689c313, 2019-01-14"
   sodipodi:docname="shark_mouth_open.svg">
  <defs
     id="defs818">
    <linearGradient
       inkscape:collect="always"
       id="linearGradient1501">
      <stop
         style="stop-color:#b9d4da;stop-opacity:1;"
         offset="0"
         id="stop1497" />
      <stop
         style="stop-color:#f4f4f4;stop-opacity:1"
         offset="1"
         id="stop1499" />
    </linearGradient>
    <linearGradient
       inkscape:collect="always"
       xlink:href="#linearGradient1501"
       id="linearGradient1503"
       x1="168.64333"
       y1="135.18503"
       x2="171.47484"
       y2="166.14127"
       gradientUnits="userSpaceOnUse" />
  </defs>
  <sodipodi:namedview
     id="base"
     pagecolor="#ffffff"
     bordercolor="#666666"
     borderopacity="1.0"
     inkscape:pageopacity="0.0"
     inkscape:pageshadow="2"
     inkscape:zoom="0.34975166"
     inkscape:cx="335.96091"
     inkscape:cy="738.08095"
     inkscape:document-units="mm"
     inkscape:current-layer="layer1"
     showgrid="false"
     inkscape:window-width="1920"
     inkscape:window-height="1057"
     inkscape:window-x="0"
     inkscape:window-y="0"
     inkscape:window-maximized="1"
     inkscape:snap-global="false" />
  <metadata
     id="metadata821">
    <rdf:RDF>
      <cc:Work
         rdf:about="">
        <dc:format>image/svg+xml</dc:format>
        <dc:type
           rdf:resource="http://purl.org/dc/dcmitype/StillImage" />
        <dc:title />
      </cc:Work>
    </rdf:RDF>
  </metadata>
  <g
     inkscape:groupmode="layer"
     id="layer2"
     inkscape:label="Teeth"
     style="display:inline">
    <path
       style="opacity:1;fill:#ffffff;fill-opacity:1;stroke:#010002;stroke-width:0.2774764;stroke-linecap:round;stroke-linejoin:miter;stroke-miterlimit:4;stroke-dasharray:none;stroke-opacity:1"
       d="m 51.489296,148.53964 c 0.09405,-0.59143 0.371692,-0.6871 0.995473,-0.71039 0.749256,-0.028 1.728429,0.36206 1.301864,0.93135 -0.954274,1.27358 -0.504008,4.19933 -0.848641,4.00728 -0.334737,-0.18654 -1.668399,-2.8465 -1.448675,-4.22828 z"
       id="rect1432"
       inkscape:connector-curvature="0"
       sodipodi:nodetypes="sssss" />
    <path
       style="opacity:1;fill:#ffffff;fill-opacity:1;stroke:#010002;stroke-width:0.2774764;stroke-linecap:round;stroke-linejoin:miter;stroke-miterlimit:4;stroke-dasharray:none;stroke-opacity:1"
       d="m 56.444985,150.28893 c 0.09405,-0.59142 0.371693,-0.68709 0.995474,-0.71039 0.749255,-0.028 1.728428,0.36207 1.301864,0.93136 -0.954275,1.27358 -0.504008,4.19933 -0.848642,4.00728 -0.334737,-0.18654 -1.668398,-2.8465 -1.448674,-4.22828 z"
       id="path1438"
       inkscape:connector-curvature="0"
       sodipodi:nodetypes="sssss" />
    <path
       sodipodi:nodetypes="sssss"
       inkscape:connector-curvature="0"
       id="path1440"
       d="m 59.036841,151.13761 c 0.09405,-0.59143 0.371692,-0.6871 0.995473,-0.71039 0.749256,-0.028 1.728429,0.36206 1.301864,0.93135 -0.954274,1.27358 -0.504008,4.19933 -0.848642,4.00728 -0.334736,-0.18654 -1.668398,-2.8465 -1.448674,-4.22828 z"
       style="opacity:1;fill:#ffffff;fill-opacity:1;stroke:#010002;stroke-width:0.2774764;stroke-linecap:round;stroke-linejoin:miter;stroke-miterlimit:4;stroke-dasharray:none;stroke-opacity:1" />
    <path
       style="opacity:1;fill:#ffffff;fill-opacity:1;stroke:#010002;stroke-width:0.2774764;stroke-linecap:round;stroke-linejoin:miter;stroke-miterlimit:4;stroke-dasharray:none;stroke-opacity:1"
       d="m 61.825547,151.79753 c 0.09405,-0.59142 0.371693,-0.6871 0.995474,-0.71039 0.749255,-0.028 1.728428,0.36206 1.301864,0.93135 -0.954275,1.27358 -0.504008,4.19933 -0.848642,4.00729 -0.334737,-0.18655 -1.668398,-2.8465 -1.448674,-4.22829 z"
       id="path1442"
       inkscape:connector-curvature="0"
       sodipodi:nodetypes="sssss" />
    <path
       sodipodi:nodetypes="sssss"
       inkscape:connector-curvature="0"
       id="path1444"
       d="m 64.711803,152.67508 c 0.09405,-0.59142 0.371692,-0.6871 0.995473,-0.71039 0.749256,-0.028 1.728429,0.36206 1.301864,0.93135 -0.954274,1.27358 -0.504008,4.19933 -0.848641,4.00729 -0.334737,-0.18655 -1.668399,-2.8465 -1.448675,-4.22829 z"
       style="opacity:1;fill:#ffffff;fill-opacity:1;stroke:#010002;stroke-width:0.2774764;stroke-linecap:round;stroke-linejoin:miter;stroke-miterlimit:4;stroke-dasharray:none;stroke-opacity:1" />
    <path
       style="opacity:1;fill:#ffffff;fill-opacity:1;stroke:#010002;stroke-width:0.2774764;stroke-linecap:round;stroke-linejoin:miter;stroke-miterlimit:4;stroke-dasharray:none;stroke-opacity:1"
       d="m 67.583621,153.69983 c 0.09405,-0.59143 0.371692,-0.6871 0.995474,-0.71039 0.749255,-0.028 1.728428,0.36206 1.301863,0.93135 -0.954274,1.27358 -0.504007,4.19933 -0.848641,4.00729 -0.334737,-0.18655 -1.668398,-2.84651 -1.448674,-4.22829 z"
       id="path1446"
       inkscape:connector-curvature="0"
       sodipodi:nodetypes="sssss" />
    <path
       sodipodi:nodetypes="sssss"
       inkscape:connector-curvature="0"
       id="path1448"
       d="m 70.427444,154.70697 c 0.09405,-0.59142 0.371692,-0.6871 0.995474,-0.71039 0.749255,-0.028 1.728428,0.36206 1.301863,0.93135 -0.954274,1.27358 -0.504008,4.19933 -0.848641,4.00729 -0.334737,-0.18655 -1.668399,-2.8465 -1.448675,-4.22829 z"
       style="opacity:1;fill:#ffffff;fill-opacity:1;stroke:#010002;stroke-width:0.2774764;stroke-linecap:round;stroke-linejoin:miter;stroke-miterlimit:4;stroke-dasharray:none;stroke-opacity:1" />
    <path
       style="opacity:1;fill:#ffffff;fill-opacity:1;stroke:#010002;stroke-width:0.2774764;stroke-linecap:round;stroke-linejoin:miter;stroke-miterlimit:4;stroke-dasharray:none;stroke-opacity:1"
       d="m 73.334474,155.67573 c 0.09405,-0.59142 0.371693,-0.6871 0.995474,-0.71039 0.749255,-0.028 1.728428,0.36207 1.301864,0.93135 -0.954275,1.27358 -0.504008,4.19933 -0.848642,4.00729 -0.334737,-0.18654 -1.668398,-2.8465 -1.448674,-4.22829 z"
       id="path1450"
       inkscape:connector-curvature="0"
       sodipodi:nodetypes="sssss" />
    <path
       sodipodi:nodetypes="sssss"
       inkscape:connector-curvature="0"
       id="path1452"
       d="m 76.279891,156.7077 c 0.09405,-0.59142 0.371693,-0.6871 0.995474,-0.71039 0.749255,-0.028 1.728428,0.36207 1.301864,0.93135 -0.954275,1.27358 -0.504008,4.19933 -0.848642,4.00729 -0.334737,-0.18654 -1.668398,-2.8465 -1.448674,-4.22829 z"
       style="opacity:1;fill:#ffffff;fill-opacity:1;stroke:#010002;stroke-width:0.2774764;stroke-linecap:round;stroke-linejoin:miter;stroke-miterlimit:4;stroke-dasharray:none;stroke-opacity:1" />
    <path
       style="opacity:1;fill:#ffffff;fill-opacity:1;stroke:#010002;stroke-width:0.2774764;stroke-linecap:round;stroke-linejoin:miter;stroke-miterlimit:4;stroke-dasharray:none;stroke-opacity:1"
       d="m 58.023391,176.09484 c 0.567221,0.19206 0.781132,-0.009 1.092105,-0.55038 0.373528,-0.65011 0.484094,-1.6983 -0.218317,-1.58575 -1.571386,0.25177 -3.951265,-1.50861 -3.941713,-1.1142 0.0093,0.3831 1.742727,2.80162 3.067965,3.25033 z"
       id="path1454"
       inkscape:connector-curvature="0"
       sodipodi:nodetypes="sssss" />
    <path
       sodipodi:nodetypes="sssss"
       inkscape:connector-curvature="0"
       id="path1436"
       d="m 53.94434,149.41948 c 0.09405,-0.59142 0.371692,-0.6871 0.995473,-0.71039 0.749256,-0.028 1.728429,0.36206 1.301864,0.93135 -0.954274,1.27358 -0.504008,4.19933 -0.848641,4.00729 -0.334737,-0.18655 -1.668399,-2.8465 -1.448675,-4.22829 z"
       style="opacity:1;fill:#ffffff;fill-opacity:1;stroke:#010002;stroke-width:0.2774764;stroke-linecap:round;stroke-linejoin:miter;stroke-miterlimit:4;stroke-dasharray:none;stroke-opacity:1" />
    <path
       sodipodi:nodetypes="sssss"
       inkscape:connector-curvature="0"
       id="path1456"
       d="m 60.221771,174.67554 c 0.567221,0.19205 0.781132,-0.009 1.092105,-0.55038 0.373528,-0.65011 0.484094,-1.6983 -0.218318,-1.58576 -1.571385,0.25178 -3.951264,-1.50861 -3.941712,-1.1142 0.0093,0.3831 1.742727,2.80162 3.067965,3.25034 z"
       style="opacity:1;fill:#ffffff;fill-opacity:1;stroke:#010002;stroke-width:0.2774764;stroke-linecap:round;stroke-linejoin:miter;stroke-miterlimit:4;stroke-dasharray:none;stroke-opacity:1" />
    <path
       style="opacity:1;fill:#ffffff;fill-opacity:1;stroke:#010002;stroke-width:0.2774764;stroke-linecap:round;stroke-linejoin:miter;stroke-miterlimit:4;stroke-dasharray:none;stroke-opacity:1"
       d="m 62.787562,173.54942 c 0.567221,0.19206 0.781132,-0.009 1.092106,-0.55038 0.373527,-0.65011 0.484093,-1.6983 -0.218318,-1.58575 -1.571385,0.25177 -3.951265,-1.50861 -3.941712,-1.1142 0.0093,0.3831 1.742727,2.80162 3.067964,3.25033 z"
       id="path1458"
       inkscape:connector-curvature="0"
       sodipodi:nodetypes="sssss" />
    <path
       sodipodi:nodetypes="sssss"
       inkscape:connector-curvature="0"
       id="path1460"
       d="m 64.912156,172.41658 c 0.567222,0.19205 0.781133,-0.009 1.092106,-0.55039 0.373528,-0.6501 0.484093,-1.69829 -0.218318,-1.58575 -1.571385,0.25178 -3.951264,-1.50861 -3.941712,-1.1142 0.0093,0.3831 1.742727,2.80162 3.067965,3.25034 z"
       style="opacity:1;fill:#ffffff;fill-opacity:1;stroke:#010002;stroke-width:0.2774764;stroke-linecap:round;stroke-linejoin:miter;stroke-miterlimit:4;stroke-dasharray:none;stroke-opacity:1" />
    <path
       style="opacity:1;fill:#ffffff;fill-opacity:1;stroke:#010002;stroke-width:0.2774764;stroke-linecap:round;stroke-linejoin:miter;stroke-miterlimit:4;stroke-dasharray:none;stroke-opacity:1"
       d="m 67.482505,171.15418 c 0.567221,0.19205 0.781132,-0.009 1.092105,-0.55039 0.373528,-0.65011 0.484094,-1.69829 -0.218317,-1.58575 -1.571386,0.25178 -3.951265,-1.50861 -3.941713,-1.1142 0.0093,0.3831 1.742727,2.80162 3.067965,3.25034 z"
       id="path1462"
       inkscape:connector-curvature="0"
       sodipodi:nodetypes="sssss" />
    <path
       sodipodi:nodetypes="sssss"
       inkscape:connector-curvature="0"
       id="path1464"
       d="m 69.983625,170.04195 c 0.567221,0.19205 0.781132,-0.009 1.092105,-0.55039 0.373528,-0.6501 0.484094,-1.69829 -0.218317,-1.58575 -1.571386,0.25178 -3.951265,-1.50861 -3.941713,-1.1142 0.0093,0.3831 1.742727,2.80162 3.067965,3.25034 z"
       style="opacity:1;fill:#ffffff;fill-opacity:1;stroke:#010002;stroke-width:0.2774764;stroke-linecap:round;stroke-linejoin:miter;stroke-miterlimit:4;stroke-dasharray:none;stroke-opacity:1" />
    <path
       style="opacity:1;fill:#ffffff;fill-opacity:1;stroke:#010002;stroke-width:0.2774764;stroke-linecap:round;stroke-linejoin:miter;stroke-miterlimit:4;stroke-dasharray:none;stroke-opacity:1"
       d="m 72.939832,169.00112 c 0.567221,0.19206 0.781132,-0.009 1.092106,-0.55038 0.373527,-0.65011 0.484093,-1.6983 -0.218318,-1.58575 -1.571385,0.25177 -3.951265,-1.50861 -3.941712,-1.1142 0.0093,0.3831 1.742727,2.80162 3.067964,3.25033 z"
       id="path1466"
       inkscape:connector-curvature="0"
       sodipodi:nodetypes="sssss" />
    <path
       sodipodi:nodetypes="sssss"
       inkscape:connector-curvature="0"
       id="path1468"
       d="m 75.6558,167.94423 c 0.567222,0.19206 0.781133,-0.009 1.092106,-0.55038 0.373527,-0.65011 0.484093,-1.69829 -0.218318,-1.58575 -1.571385,0.25178 -3.951265,-1.50861 -3.941712,-1.1142 0.0093,0.3831 1.742727,2.80162 3.067964,3.25034 z"
       style="opacity:1;fill:#ffffff;fill-opacity:1;stroke:#010002;stroke-width:0.2774764;stroke-linecap:round;stroke-linejoin:miter;stroke-miterlimit:4;stroke-dasharray:none;stroke-opacity:1" />
    <path
       style="opacity:1;fill:#ffffff;fill-opacity:1;stroke:#010002;stroke-width:0.2774764;stroke-linecap:round;stroke-linejoin:miter;stroke-miterlimit:4;stroke-dasharray:none;stroke-opacity:1"
       d="m 78.254146,167.2847 c 0.567222,0.19206 0.781133,-0.009 1.092106,-0.55038 0.373527,-0.65011 0.484093,-1.69829 -0.218318,-1.58575 -1.571385,0.25178 -3.951265,-1.50861 -3.941712,-1.1142 0.0093,0.3831 1.742727,2.80162 3.067964,3.25034 z"
       id="path1470"
       inkscape:connector-curvature="0"
       sodipodi:nodetypes="sssss" />
    <path
       sodipodi:nodetypes="sssss"
       inkscape:connector-curvature="0"
       id="path1472"
       d="m 81.00245,166.22087 c 0.567221,0.19206 0.781132,-0.009 1.092106,-0.55038 0.373527,-0.65011 0.484093,-1.6983 -0.218318,-1.58575 -1.571385,0.25177 -3.951265,-1.50861 -3.941712,-1.1142 0.0093,0.3831 1.742727,2.80162 3.067964,3.25033 z"
       style="opacity:1;fill:#ffffff;fill-opacity:1;stroke:#010002;stroke-width:0.2774764;stroke-linecap:round;stroke-linejoin:miter;stroke-miterlimit:4;stroke-dasharray:none;stroke-opacity:1" />
    <path
       style="opacity:1;fill:#ffffff;fill-opacity:1;stroke:#010002;stroke-width:0.2774764;stroke-linecap:round;stroke-linejoin:miter;stroke-miterlimit:4;stroke-dasharray:none;stroke-opacity:1"
       d="m 83.838647,165.40878 c 0.567221,0.19205 0.781132,-0.009 1.092105,-0.55039 0.373528,-0.65011 0.484094,-1.69829 -0.218317,-1.58575 -1.571386,0.25178 -3.951265,-1.50861 -3.941713,-1.1142 0.0093,0.3831 1.742727,2.80162 3.067965,3.25034 z"
       id="path1474"
       inkscape:connector-curvature="0"
       sodipodi:nodetypes="sssss"
       inkscape:transform-center-x="2.2409555"
       inkscape:transform-center-y="1.1206835" />
  </g>
  <g
     inkscape:label="body"
     inkscape:groupmode="layer"
     id="layer1"
     style="display:inline;opacity:1">
    <path
       style="opacity:1;fill:url(#linearGradient1503);fill-opacity:1;stroke:#000000;stroke-width:1.16499996;stroke-linecap:round;stroke-linejoin:miter;stroke-miterlimit:4;stroke-dasharray:none;stroke-opacity:1"
       d="m 304.84394,172.39366 c 0,10.22878 -31.35505,-19.01377 -33.81728,-17.63259 -14.18705,7.95823 -92.56707,19.61769 -101.19519,19.42814 -14.31164,0.32626 11.25124,21.85847 -8.75816,15.709 -17.74909,-5.4548 -35.7789,-21.37365 -39.68163,-19.62562 -15.40185,6.8985 -63.865828,9.70869 -64.781221,7.97073 -1.872151,-3.55447 29.266795,-15.41598 26.151512,-18.01155 -6.87414,-5.72733 -55.627944,-16.61498 -56.318832,-26.82039 -0.534538,-7.89588 25.245096,-6.01877 60.133205,-7.60922 14.765386,-0.67311 57.734566,-0.39311 66.648876,-5.28231 1.95444,-1.07194 17.97634,-15.70067 19.87972,-17.95904 3.38938,-4.021509 29.0284,-16.310354 28.99935,-13.154963 -0.0263,2.852801 -13.10906,32.906743 -8.17061,34.006443 2.77046,0.61693 71.02522,11.63545 72.99535,12.05341 15.76108,3.3437 42.08491,-37.306703 42.5699,-35.16432 1.29354,5.71401 -8.52912,25.2619 -8.03342,55.09077 0.22745,13.68743 3.37843,11.68174 3.37843,17.00151 z"
       id="path1369"
       inkscape:connector-curvature="0"
       sodipodi:nodetypes="sscssssssssssssss" />
    <ellipse
       style="opacity:1;fill:#000000;fill-opacity:0.9953271;stroke:#000000;stroke-width:0.46499997;stroke-linecap:round;stroke-linejoin:miter;stroke-miterlimit:4;stroke-dasharray:none;stroke-opacity:0.39534888"
       id="path1404"
       cx="59.714237"
       cy="139.88586"
       rx="2.3563545"
       ry="2.0197322" />
    <path
       style="fill:none;fill-rule:evenodd;stroke:#000000;stroke-width:1.21725285;stroke-linecap:butt;stroke-linejoin:miter;stroke-miterlimit:4;stroke-dasharray:none;stroke-opacity:1"
       d="m 106.17565,141.37214 c 0.10445,-0.002 -0.003,2.14214 0.0825,2.312 0.06,0.11987 0.21441,0.15972 0.27444,0.27958 0.0423,0.0848 0.007,0.19266 0.0103,0.289 0.007,0.19268 -0.0287,0.39261 0.0206,0.57801 0.0551,0.20728 0.21518,0.36643 0.28472,0.56857 0.0312,0.0904 0.007,0.19267 0.0103,0.28901 l 0.0206,0.57799 0.0619,1.734 0.12375,3.46801 0.0309,0.867 c 0.007,0.19267 -0.0416,0.39721 0.0206,0.57801 0.0695,0.20213 0.21519,0.36645 0.28472,0.56858 0.06,0.1744 0.0539,1.51079 0.0619,1.734 0.003,0.0963 -0.032,0.20422 0.0103,0.289 0.06,0.11986 0.23044,0.15174 0.27443,0.27957 0.11031,0.32071 -0.0445,1.79008 0.0722,2.02301 0.12005,0.23972 0.44733,0.30947 0.54884,0.55915 0.0396,0.0974 -0.0255,1.29102 0.0516,1.44501 0.06,0.11986 0.23044,0.15173 0.27443,0.27957 0.0622,0.18079 0.0138,0.38533 0.0206,0.578 0.003,0.0963 -0.0322,0.20425 0.0103,0.289 0.06,0.11986 0.21439,0.15971 0.27442,0.27958 0.0425,0.0847 0.007,0.19266 0.0103,0.28899 0.007,0.19267 -0.0416,0.39722 0.0206,0.57802 0.044,0.12783 0.2144,0.15969 0.27443,0.27957 0.0424,0.0847 0.007,0.19267 0.0103,0.28899 0.005,0.13075 0.0238,1.65825 0.0619,1.734 0.12005,0.23974 0.42879,0.31942 0.54884,0.55916 0.084,0.16773 -0.0367,0.67038 0.0309,0.867 0.0696,0.20214 0.21519,0.36645 0.28473,0.56858 0.0311,0.0905 -0.032,0.20423 0.0103,0.289 0.06,0.11987 0.2144,0.1597 0.27443,0.27958 0.0423,0.0845 0.0575,1.61242 0.0619,1.73399"
       id="path1422"
       inkscape:connector-curvature="0"
       sodipodi:nodetypes="cccsccscccsccsccccccsccsccsccccccc" />
    <path
       style="fill:none;fill-rule:evenodd;stroke:#000000;stroke-width:1.21725285;stroke-linecap:butt;stroke-linejoin:miter;stroke-miterlimit:4;stroke-dasharray:none;stroke-opacity:1"
       d="m 111.82822,140.44702 0.0361,1.0115 c 0.002,0.0482 -0.0207,0.10529 0.005,0.1445 0.0731,0.11089 0.20132,0.16868 0.27443,0.27958 0.0417,0.0634 -0.0106,0.61686 0.0258,0.7225 0.022,0.064 0.10719,0.0798 0.13721,0.13978 0.016,0.032 0.0194,0.54367 0.0206,0.57801 0.006,0.17277 -0.001,0.77372 0.0309,0.86699 0.0348,0.10103 0.11476,0.18066 0.14237,0.2843 0.0346,0.12993 0.0198,0.55464 0.0258,0.7225 l 0.067,1.8785 0.17531,4.91302 0.0516,1.445 c 0.005,0.1361 -0.002,0.64119 0.0258,0.72251 0.022,0.064 0.11522,0.0758 0.13722,0.13978 0.0282,0.0819 0.0209,0.58684 0.0258,0.7225 l 0.005,0.1445 c 0.002,0.0482 -0.019,0.10403 0.005,0.1445 1.13921,1.54123 0.26927,0.13507 0.42195,0.70836 0.0391,0.14656 0.11489,0.2804 0.14751,0.42878 0.0207,0.0938 0.007,0.19267 0.0103,0.28902 l 0.0258,0.72249 0.0103,0.28901 c 0.002,0.0482 -0.0104,0.0992 0.005,0.1445 0.0348,0.10101 0.0949,0.18952 0.14237,0.28428 0.005,0.1445 -0.0156,0.29274 0.0155,0.4335 0.0231,0.10494 0.11478,0.18066 0.14237,0.28429 0.0341,0.12796 0.0198,0.55524 0.0258,0.72251 l 0.067,1.87849 0.12891,3.61251 0.0464,1.3005 c 0.003,0.0949 0.0375,0.35109 0.0155,0.43351 -0.0275,0.10335 -0.0943,0.19042 -0.12174,0.29372 -0.0229,0.0863 0.0229,0.64176 0.0258,0.72249"
       id="path1424"
       inkscape:connector-curvature="0"
       sodipodi:nodetypes="csccccsccsccsccsscccscsccccsccsccc" />
    <path
       style="fill:none;fill-rule:evenodd;stroke:#000000;stroke-width:1.21725285;stroke-linecap:butt;stroke-linejoin:miter;stroke-miterlimit:4;stroke-dasharray:none;stroke-opacity:1"
       d="m 116.69362,139.69467 0.17016,4.76852 0.0309,0.86699 c 0.005,0.1445 -0.0482,0.30636 0.0155,0.4335 0.06,0.11986 0.22367,0.15474 0.27441,0.27957 0.0914,0.22477 -0.0352,0.49334 0.0258,0.72251 0.0391,0.14656 0.10853,0.28222 0.14753,0.42879 0.0309,0.11596 0.025,0.70128 0.0258,0.7225 0.002,0.0482 -0.0104,0.0992 0.005,0.1445 0.0348,0.10101 0.11929,0.17936 0.14237,0.28429 0.0343,0.15558 -0.0185,0.55665 0.0258,0.72251 0.0391,0.14655 0.10854,0.28221 0.14752,0.42878 0.0247,0.0928 0.007,0.19266 0.0103,0.289 l 0.0258,0.7225 0.0155,0.4335 c 0.002,0.0482 -0.0161,0.10207 0.005,0.1445 0.0765,0.15281 0.2149,0.26493 0.2796,0.42409 0.0538,0.13241 0.0103,0.28899 0.0155,0.43349 l 0.0516,1.445 0.11859,3.32351 0.37125,10.40402"
       id="path1426"
       inkscape:connector-curvature="0"
       sodipodi:nodetypes="ccsccccsccccscsccsccc" />
    <path
       style="fill:none;fill-rule:evenodd;stroke:#000000;stroke-width:1.21725285;stroke-linecap:butt;stroke-linejoin:miter;stroke-miterlimit:4;stroke-dasharray:none;stroke-opacity:1"
       d="m 122.90017,139.4732 c -0.0337,0.29057 -0.0783,0.5798 -0.1011,0.87171 -0.0188,0.23995 0.0172,0.48167 0.0258,0.7225 l 0.0361,1.01151 0.11859,3.3235 0.0464,1.30051 c 0.005,0.1445 0.0523,0.29493 0.0155,0.4335 -0.0174,0.0654 -0.10952,0.0839 -0.1269,0.14921 -0.0168,0.063 -0.0419,1.4748 -0.0399,1.53131 0.009,0.26019 0.0575,-1.03789 0.1482,1.5032 l 0.0258,0.72249 c 0.003,0.0963 0.0466,0.20144 0.0103,0.28902 -0.0513,0.12382 -0.20246,0.17457 -0.25379,0.29842 -0.0421,0.10136 0.0586,0.7225 0.0309,0.86699 -0.0201,0.10539 -0.0943,0.19043 -0.12174,0.29371 -0.0368,0.13858 0.0425,0.29218 0.0155,0.43351 -0.0202,0.10538 -0.0943,0.19043 -0.12175,0.2937 -0.0123,0.0462 0.003,0.0963 0.005,0.1445 0.004,0.12101 0.047,0.61172 0.0258,0.72251 -0.0202,0.10539 -0.0943,0.19043 -0.12173,0.29372 -0.0246,0.0924 0.007,0.19266 0.0103,0.289 l 0.0258,0.7225 c 0.005,0.14449 0.0364,0.29087 0.0155,0.43349 0.0889,0.25871 -0.20434,0.27638 -0.24865,0.44294 -0.0189,0.071 0.0308,0.86396 0.0361,1.0115 l 0.0928,2.601 0.165,4.62401 0.0516,1.445 c 0.004,0.12234 0.0415,0.49946 0.0206,0.57801 -0.14407,0.54149 -0.13834,-0.17144 -0.12174,0.29371"
       id="path1428"
       inkscape:connector-curvature="0"
       sodipodi:nodetypes="ccsccsccscsccccccsccssccsccscc" />
    <path
       style="fill:none;fill-rule:evenodd;stroke:#000000;stroke-width:1.21725285;stroke-linecap:butt;stroke-linejoin:miter;stroke-miterlimit:4;stroke-dasharray:none;stroke-opacity:1"
       d="m 127.66961,139.73707 c -0.19137,0.30687 0.0983,0.68617 0.0361,1.0115 -0.0285,0.14897 -0.0881,0.28924 -0.11658,0.4382 -0.009,0.0472 0.0174,0.0983 0.005,0.14451 -0.055,0.20657 -0.18853,0.38085 -0.24349,0.58743 -0.0246,0.0924 0.007,0.19266 0.0103,0.28899 l 0.0206,0.57801 c 0.002,0.0482 0.0174,0.0983 0.005,0.14449 -0.0275,0.10325 -0.0943,0.19044 -0.12174,0.29372 -0.0258,0.0965 0.0306,0.85648 0.0361,1.01151 0.003,0.0963 0.0349,0.19661 0.0103,0.28899 -0.0275,0.10324 -0.0943,0.19043 -0.12175,0.29371 -0.0368,0.13858 0.0426,0.29218 0.0155,0.43351 -0.0202,0.10538 -0.0943,0.19042 -0.12175,0.2937 -0.0123,0.0462 0.003,0.0963 0.005,0.1445 l 0.0258,0.72251 0.005,0.1445 c 0.002,0.0482 0.0281,0.10354 0.005,0.14451 -0.065,0.11581 -0.18877,0.1826 -0.25379,0.29842 -0.0353,0.0628 0.0686,0.77616 0.0309,0.867 -0.0257,0.0619 -0.10123,0.0873 -0.1269,0.14921 -0.0222,0.0535 0.0228,0.63924 0.0258,0.72251 0.004,0.11529 0.0492,0.63486 0.0258,0.7225 -0.0275,0.10324 -0.1016,0.18836 -0.12173,0.29371 -0.0369,0.19329 0.0766,0.69503 0.0309,0.86699 -0.0174,0.0654 -0.10953,0.0839 -0.1269,0.14921 -0.0491,0.18477 0.0932,0.40288 0.0206,0.57802 -0.0513,0.12383 -0.18879,0.18259 -0.25381,0.29842 -0.023,0.0409 0.003,0.0963 0.005,0.14449 l 0.0103,0.28901 0.0258,0.7225 0.005,0.1445 c 0.002,0.0482 0.0233,0.10066 0.005,0.1445 -0.0257,0.0619 -0.10952,0.0839 -0.12689,0.14921 -0.0368,0.13857 0.0103,0.28899 0.0155,0.43351 l 0.0361,1.0115 c 0.001,0.0343 0.0343,0.54507 0.0206,0.57799 -0.0257,0.062 -0.10952,0.0839 -0.1269,0.14922 -0.0209,0.0785 0.0163,0.45566 0.0206,0.57799 l 0.0516,1.44501 0.0361,1.0115 c 0.003,0.0963 -0.0208,0.19862 0.0103,0.28899 0.35619,1.03531 -0.0462,-0.22645 0.27957,0.42409 0.0212,0.0424 0.003,0.0963 0.005,0.1445 l 0.0103,0.289 c 0.004,0.11812 0.0111,0.93907 0.0361,1.0115 0.022,0.064 0.1072,0.0798 0.13722,0.13979 0.0425,0.0847 -0.0144,0.19631 0.0103,0.289 0.039,0.14657 0.10853,0.28223 0.14753,0.4288 0.0332,0.12457 0.0155,0.43511 0.0206,0.57799 l 0.0361,1.0115 0.0309,0.867 0.0103,0.28901 c 0.002,0.0482 0.0233,0.10066 0.005,0.1445 -0.0513,0.12384 -0.21905,0.16778 -0.25381,0.29842 -0.0207,0.0777 0.0368,1.03198 0.0413,1.156 0.005,0.1445 0.0523,0.29493 0.0155,0.4335 -0.0174,0.0654 -0.10123,0.0873 -0.12689,0.14922 -0.0136,0.033 0.0194,0.54365 0.0206,0.578 l 0.0206,0.578 c 0.003,0.0963 0.0284,0.19478 0.0103,0.289 -0.0285,0.14897 -0.0777,0.29214 -0.11659,0.4382"
       id="path1430"
       inkscape:connector-curvature="0"
       sodipodi:nodetypes="cccccssccsccccscsccccsccccccsccsccssccscsccssccccsccsccsccsscc" />
  </g>
</svg>
