<?xml version="1.0" encoding="UTF-8" standalone="no"?>
<!-- Created with Inkscape (http://www.inkscape.org/) -->

<svg
   xmlns:dc="http://purl.org/dc/elements/1.1/"
   xmlns:cc="http://creativecommons.org/ns#"
   xmlns:rdf="http://www.w3.org/1999/02/22-rdf-syntax-ns#"
   xmlns:svg="http://www.w3.org/2000/svg"
   xmlns="http://www.w3.org/2000/svg"
   xmlns:xlink="http://www.w3.org/1999/xlink"
   xmlns:sodipodi="http://sodipodi.sourceforge.net/DTD/sodipodi-0.dtd"
   xmlns:inkscape="http://www.inkscape.org/namespaces/inkscape"
   width="210mm"
   height="297mm"
   viewBox="0 0 210 297"
   version="1.1"
   id="svg824"
   inkscape:version="0.92.4 5da689c313, 2019-01-14"
   sodipodi:docname="shark_mouth_closed.svg">
  <defs
     id="defs818">
    <linearGradient
       inkscape:collect="always"
       id="linearGradient1501">
      <stop
         style="stop-color:#b9d4da;stop-opacity:1;"
         offset="0"
         id="stop1497" />
      <stop
         style="stop-color:#f4f4f4;stop-opacity:1"
         offset="1"
         id="stop1499" />
    </linearGradient>
    <linearGradient
       inkscape:collect="always"
       xlink:href="#linearGradient1501"
       id="linearGradient1503"
       x1="168.64333"
       y1="135.18503"
       x2="171.47484"
       y2="166.14127"
       gradientUnits="userSpaceOnUse" />
  </defs>
  <sodipodi:namedview
     id="base"
     pagecolor="#ffffff"
     bordercolor="#666666"
     borderopacity="1.0"
     inkscape:pageopacity="0.0"
     inkscape:pageshadow="2"
     inkscape:zoom="0.97800231"
     inkscape:cx="92.354594"
     inkscape:cy="440.11536"
     inkscape:document-units="mm"
     inkscape:current-layer="layer2"
     showgrid="false"
     inkscape:window-width="1920"
     inkscape:window-height="1057"
     inkscape:window-x="0"
     inkscape:window-y="0"
     inkscape:window-maximized="1"
     inkscape:snap-global="false" />
  <metadata
     id="metadata821">
    <rdf:RDF>
      <cc:Work
         rdf:about="">
        <dc:format>image/svg+xml</dc:format>
        <dc:type
           rdf:resource="http://purl.org/dc/dcmitype/StillImage" />
        <dc:title />
      </cc:Work>
    </rdf:RDF>
  </metadata>
  <g
     inkscape:groupmode="layer"
     id="layer2"
     inkscape:label="Teeth"
     style="display:inline">
    <path
       style="opacity:1;fill:#ffffff;fill-opacity:1;stroke:#010002;stroke-width:0.2774764;stroke-linecap:round;stroke-linejoin:miter;stroke-miterlimit:4;stroke-dasharray:none;stroke-opacity:1"
       d="m 48.756241,162.79721 c -0.23525,-0.55071 -0.05116,-0.77951 0.464471,-1.13132 0.619349,-0.42258 1.655877,-0.6137 1.597869,0.0953 -0.129761,1.58613 1.809016,3.82307 1.41504,3.84398 -0.382668,0.0203 -2.927737,-1.52134 -3.47738,-2.808 z"
       id="rect1432"
       inkscape:connector-curvature="0"
       sodipodi:nodetypes="sssss" />
    <path
       style="opacity:1;fill:#ffffff;fill-opacity:1;stroke:#010002;stroke-width:0.2774764;stroke-linecap:round;stroke-linejoin:miter;stroke-miterlimit:4;stroke-dasharray:none;stroke-opacity:1"
       d="m 53.882543,161.63966 c -0.23525,-0.55071 -0.05116,-0.77951 0.464471,-1.13132 0.619349,-0.42258 1.655877,-0.6137 1.597869,0.0953 -0.129761,1.58613 1.809016,3.82307 1.41504,3.84398 -0.382668,0.0203 -2.927737,-1.52134 -3.47738,-2.808 z"
       id="path1438"
       inkscape:connector-curvature="0"
       sodipodi:nodetypes="sssss" />
    <path
       sodipodi:nodetypes="sssss"
       inkscape:connector-curvature="0"
       id="path1440"
       d="m 56.528376,160.9782 c -0.23525,-0.55071 -0.05116,-0.77951 0.464471,-1.13132 0.619349,-0.42258 1.655877,-0.6137 1.597869,0.0953 -0.129761,1.58613 1.809016,3.82307 1.41504,3.84398 -0.382668,0.0203 -2.927737,-1.52134 -3.47738,-2.808 z"
       style="opacity:1;fill:#ffffff;fill-opacity:1;stroke:#010002;stroke-width:0.2774764;stroke-linecap:round;stroke-linejoin:miter;stroke-miterlimit:4;stroke-dasharray:none;stroke-opacity:1" />
    <path
       style="opacity:1;fill:#ffffff;fill-opacity:1;stroke:#010002;stroke-width:0.2774764;stroke-linecap:round;stroke-linejoin:miter;stroke-miterlimit:4;stroke-dasharray:none;stroke-opacity:1"
       d="m 59.240355,160.05216 c -0.23525,-0.55071 -0.05116,-0.77951 0.464471,-1.13132 0.619349,-0.42258 1.655877,-0.6137 1.597869,0.0953 -0.129761,1.58613 1.809016,3.82307 1.41504,3.84398 -0.382668,0.0203 -2.927737,-1.52134 -3.47738,-2.808 z"
       id="path1442"
       inkscape:connector-curvature="0"
       sodipodi:nodetypes="sssss" />
    <path
       sodipodi:nodetypes="sssss"
       inkscape:connector-curvature="0"
       id="path1444"
       d="m 62.150772,159.25841 c -0.23525,-0.55071 -0.05116,-0.77951 0.464471,-1.13132 0.619349,-0.42258 1.655877,-0.6137 1.597869,0.0953 -0.129761,1.58613 1.809016,3.82307 1.41504,3.84398 -0.382668,0.0203 -2.927737,-1.52134 -3.47738,-2.808 z"
       style="opacity:1;fill:#ffffff;fill-opacity:1;stroke:#010002;stroke-width:0.2774764;stroke-linecap:round;stroke-linejoin:miter;stroke-miterlimit:4;stroke-dasharray:none;stroke-opacity:1" />
    <path
       style="opacity:1;fill:#ffffff;fill-opacity:1;stroke:#010002;stroke-width:0.2774764;stroke-linecap:round;stroke-linejoin:miter;stroke-miterlimit:4;stroke-dasharray:none;stroke-opacity:1"
       d="m 65.127334,158.59695 c -0.23525,-0.55071 -0.05116,-0.77951 0.464471,-1.13132 0.619349,-0.42258 1.655877,-0.6137 1.597869,0.0953 -0.129761,1.58613 1.809016,3.82307 1.41504,3.84398 -0.382668,0.0203 -2.927737,-1.52134 -3.47738,-2.808 z"
       id="path1446"
       inkscape:connector-curvature="0"
       sodipodi:nodetypes="sssss" />
    <path
       sodipodi:nodetypes="sssss"
       inkscape:connector-curvature="0"
       id="path1448"
       d="m 68.070824,157.93549 c -0.23525,-0.55071 -0.05116,-0.77951 0.464471,-1.13132 0.619349,-0.42258 1.655877,-0.6137 1.597869,0.0953 -0.129761,1.58613 1.809016,3.82307 1.41504,3.84398 -0.382668,0.0203 -2.927737,-1.52134 -3.47738,-2.808 z"
       style="opacity:1;fill:#ffffff;fill-opacity:1;stroke:#010002;stroke-width:0.2774764;stroke-linecap:round;stroke-linejoin:miter;stroke-miterlimit:4;stroke-dasharray:none;stroke-opacity:1" />
    <path
       style="opacity:1;fill:#ffffff;fill-opacity:1;stroke:#010002;stroke-width:0.2774764;stroke-linecap:round;stroke-linejoin:miter;stroke-miterlimit:4;stroke-dasharray:none;stroke-opacity:1"
       d="m 71.047386,157.20789 c -0.23525,-0.55071 -0.05116,-0.77951 0.464471,-1.13132 0.619349,-0.42258 1.655877,-0.6137 1.597869,0.0953 -0.129761,1.58613 1.809016,3.82307 1.41504,3.84398 -0.382668,0.0203 -2.927737,-1.52134 -3.47738,-2.808 z"
       id="path1450"
       inkscape:connector-curvature="0"
       sodipodi:nodetypes="sssss" />
    <path
       sodipodi:nodetypes="sssss"
       inkscape:connector-curvature="0"
       id="path1452"
       d="m 74.090094,156.51336 c -0.23525,-0.55071 -0.05116,-0.77951 0.464471,-1.13132 0.619349,-0.42258 1.655877,-0.6137 1.597869,0.0953 -0.129761,1.58613 1.809016,3.82307 1.41504,3.84398 -0.382668,0.0203 -2.927737,-1.52134 -3.47738,-2.808 z"
       style="opacity:1;fill:#fff800;fill-opacity:1;stroke:#010002;stroke-width:0.2774764;stroke-linecap:round;stroke-linejoin:miter;stroke-miterlimit:4;stroke-dasharray:none;stroke-opacity:1" />
    <path
       style="opacity:1;fill:#fffff5;fill-opacity:1;stroke:#010002;stroke-width:0.2774764;stroke-linecap:round;stroke-linejoin:miter;stroke-miterlimit:4;stroke-dasharray:none;stroke-opacity:1"
       d="m 55.814336,168.93883 c 0.514247,0.30688 0.765638,0.15508 1.183328,-0.30879 0.501711,-0.55718 0.829912,-1.55878 0.119529,-1.59624 -1.58922,-0.0838 -3.546391,-2.30467 -3.61987,-1.91705 -0.07136,0.37651 1.115583,3.1051 2.317052,3.82209 z"
       id="path1454"
       inkscape:connector-curvature="0"
       sodipodi:nodetypes="sssss" />
    <path
       sodipodi:nodetypes="sssss"
       inkscape:connector-curvature="0"
       id="path1436"
       d="m 51.302856,162.23497 c -0.23525,-0.55071 -0.05116,-0.77951 0.464471,-1.13132 0.619349,-0.42258 1.655877,-0.6137 1.597869,0.0953 -0.129761,1.58613 1.809016,3.82307 1.41504,3.84398 -0.382668,0.0203 -2.927737,-1.52134 -3.47738,-2.808 z"
       style="opacity:1;fill:#ffffff;fill-opacity:1;stroke:#010002;stroke-width:0.2774764;stroke-linecap:round;stroke-linejoin:miter;stroke-miterlimit:4;stroke-dasharray:none;stroke-opacity:1" />
    <path
       sodipodi:nodetypes="sssss"
       inkscape:connector-curvature="0"
       id="path1456"
       d="m 58.261732,168.01279 c 0.514247,0.30688 0.765638,0.15508 1.183328,-0.30879 0.501711,-0.55718 0.829912,-1.55878 0.119529,-1.59624 -1.58922,-0.0838 -3.546391,-2.30467 -3.61987,-1.91705 -0.07136,0.37651 1.115583,3.1051 2.317052,3.82209 z"
       style="opacity:1;fill:#fffff5;fill-opacity:1;stroke:#010002;stroke-width:0.2774764;stroke-linecap:round;stroke-linejoin:miter;stroke-miterlimit:4;stroke-dasharray:none;stroke-opacity:1" />
    <path
       style="opacity:1;fill:#fffff5;fill-opacity:1;stroke:#010002;stroke-width:0.2774764;stroke-linecap:round;stroke-linejoin:miter;stroke-miterlimit:4;stroke-dasharray:none;stroke-opacity:1"
       d="m 61.006784,167.45055 c 0.514247,0.30688 0.765638,0.15508 1.183328,-0.30879 0.501711,-0.55718 0.829912,-1.55878 0.119529,-1.59624 -1.58922,-0.0838 -3.546391,-2.30467 -3.61987,-1.91705 -0.07136,0.37651 1.115583,3.1051 2.317052,3.82209 z"
       id="path1458"
       inkscape:connector-curvature="0"
       sodipodi:nodetypes="sssss" />
    <path
       sodipodi:nodetypes="sssss"
       inkscape:connector-curvature="0"
       id="path1460"
       d="m 63.321888,166.78909 c 0.514247,0.30688 0.765638,0.15508 1.183328,-0.30879 0.501711,-0.55718 0.829912,-1.55878 0.119529,-1.59624 -1.58922,-0.0838 -3.546391,-2.30467 -3.61987,-1.91705 -0.07136,0.37651 1.115583,3.1051 2.317052,3.82209 z"
       style="opacity:1;fill:#fffff5;fill-opacity:1;stroke:#010002;stroke-width:0.2774764;stroke-linecap:round;stroke-linejoin:miter;stroke-miterlimit:4;stroke-dasharray:none;stroke-opacity:1" />
    <path
       style="opacity:1;fill:#fffff5;fill-opacity:1;stroke:#010002;stroke-width:0.2774764;stroke-linecap:round;stroke-linejoin:miter;stroke-miterlimit:4;stroke-dasharray:none;stroke-opacity:1"
       d="m 66.100013,166.09456 c 0.514247,0.30688 0.765638,0.15508 1.183328,-0.30879 0.501711,-0.55718 0.829912,-1.55878 0.119529,-1.59624 -1.58922,-0.0838 -3.546391,-2.30467 -3.61987,-1.91705 -0.07136,0.37651 1.115583,3.1051 2.317052,3.82209 z"
       id="path1462"
       inkscape:connector-curvature="0"
       sodipodi:nodetypes="sssss" />
    <path
       sodipodi:nodetypes="sssss"
       inkscape:connector-curvature="0"
       id="path1464"
       d="m 68.778919,165.53232 c 0.514247,0.30688 0.765638,0.15508 1.183328,-0.30879 0.501711,-0.55718 0.829912,-1.55878 0.119529,-1.59624 -1.58922,-0.0838 -3.546391,-2.30467 -3.61987,-1.91705 -0.07136,0.37651 1.115583,3.1051 2.317052,3.82209 z"
       style="opacity:1;fill:#fffff5;fill-opacity:1;stroke:#010002;stroke-width:0.2774764;stroke-linecap:round;stroke-linejoin:miter;stroke-miterlimit:4;stroke-dasharray:none;stroke-opacity:1" />
    <path
       style="opacity:1;fill:#fffff5;fill-opacity:1;stroke:#010002;stroke-width:0.2774764;stroke-linecap:round;stroke-linejoin:miter;stroke-miterlimit:4;stroke-dasharray:none;stroke-opacity:1"
       d="m 71.887773,165.13545 c 0.514247,0.30688 0.765638,0.15508 1.183328,-0.30879 0.501711,-0.55718 0.829912,-1.55878 0.119529,-1.59624 -1.58922,-0.0838 -3.546391,-2.30467 -3.61987,-1.91705 -0.07136,0.37651 1.115583,3.1051 2.317052,3.82209 z"
       id="path1466"
       inkscape:connector-curvature="0"
       sodipodi:nodetypes="sssss" />
    <path
       sodipodi:nodetypes="sssss"
       inkscape:connector-curvature="0"
       id="path1468"
       d="m 74.765117,164.67243 c 0.514247,0.30688 0.765638,0.15508 1.183328,-0.30879 0.501711,-0.55718 0.829912,-1.55878 0.119529,-1.59624 -1.58922,-0.0838 -3.546391,-2.30467 -3.61987,-1.91705 -0.07136,0.37651 1.115583,3.1051 2.317052,3.82209 z"
       style="opacity:1;fill:#fffff5;fill-opacity:1;stroke:#010002;stroke-width:0.2774764;stroke-linecap:round;stroke-linejoin:miter;stroke-miterlimit:4;stroke-dasharray:none;stroke-opacity:1" />
    <path
       style="opacity:1;fill:#fffff5;fill-opacity:1;stroke:#010002;stroke-width:0.2774764;stroke-linecap:round;stroke-linejoin:miter;stroke-miterlimit:4;stroke-dasharray:none;stroke-opacity:1"
       d="m 77.444023,164.57321 c 0.514247,0.30688 0.765638,0.15508 1.183328,-0.30879 0.501711,-0.55718 0.829912,-1.55878 0.119529,-1.59624 -1.58922,-0.0838 -3.546391,-2.30467 -3.61987,-1.91705 -0.07136,0.37651 1.115583,3.1051 2.317052,3.82209 z"
       id="path1470"
       inkscape:connector-curvature="0"
       sodipodi:nodetypes="sssss" />
    <path
       sodipodi:nodetypes="sssss"
       inkscape:connector-curvature="0"
       id="path1472"
       d="m 80.35444,164.11019 c 0.514247,0.30688 0.765638,0.15508 1.183328,-0.30879 0.501711,-0.55718 0.829912,-1.55878 0.119529,-1.59624 -1.58922,-0.0838 -3.546391,-2.30467 -3.61987,-1.91705 -0.07136,0.37651 1.115583,3.1051 2.317052,3.82209 z"
       style="opacity:1;fill:#fffff5;fill-opacity:1;stroke:#010002;stroke-width:0.2774764;stroke-linecap:round;stroke-linejoin:miter;stroke-miterlimit:4;stroke-dasharray:none;stroke-opacity:1" />
    <path
       style="opacity:1;fill:#fffff5;fill-opacity:1;stroke:#010002;stroke-width:0.2774764;stroke-linecap:round;stroke-linejoin:miter;stroke-miterlimit:4;stroke-dasharray:none;stroke-opacity:1"
       d="m 83.29793,163.91175 c 0.514247,0.30688 0.765638,0.15508 1.183328,-0.30879 0.501711,-0.55718 0.829912,-1.55878 0.119529,-1.59624 -1.58922,-0.0838 -3.546391,-2.30467 -3.61987,-1.91705 -0.07136,0.37651 1.115583,3.1051 2.317052,3.82209 z"
       id="path1474"
       inkscape:connector-curvature="0"
       sodipodi:nodetypes="sssss"
       inkscape:transform-center-x="2.2484384"
       inkscape:transform-center-y="0.53026357" />
  </g>
  <g
     inkscape:label="body"
     inkscape:groupmode="layer"
     id="layer1">
    <path
       style="opacity:1;fill:url(#linearGradient1503);fill-opacity:1;stroke:#000000;stroke-width:1.165;stroke-linecap:round;stroke-linejoin:miter;stroke-miterlimit:4;stroke-dasharray:none;stroke-opacity:1"
       d="m 304.84394,172.39366 c 0,10.22878 -31.35505,-19.01377 -33.81728,-17.63259 -14.18705,7.95823 -92.56707,19.61769 -101.19519,19.42814 -14.31164,0.32626 11.25124,21.85847 -8.75816,15.709 -17.74909,-5.4548 -34.60829,-18.23483 -38.87925,-18.02086 -36.263677,1.81677 -66.06515,-1.22569 -67.454488,-2.61429 -2.807594,-2.80611 31.137682,-6.43572 28.022399,-9.03129 -6.87414,-5.72733 -57.124654,9.39034 -57.815542,-0.81507 -0.534538,-7.89588 57.059429,-30.04761 101.481351,-36.28913 8.0104,-1.1255 17.88313,-2.80025 26.79744,-2.60772 2.22858,0.0481 17.97634,-15.70067 19.87972,-17.95904 3.38938,-4.021509 29.0284,-16.310354 28.99935,-13.154963 -0.0263,2.852801 -13.10906,32.906743 -8.17061,34.006443 2.77046,0.61693 71.02522,11.63545 72.99535,12.05341 15.76108,3.3437 42.08491,-37.306703 42.5699,-35.16432 1.29354,5.71401 -8.52912,25.2619 -8.03342,55.09077 0.22745,13.68743 3.37843,11.68174 3.37843,17.00151 z"
       id="path1369"
       inkscape:connector-curvature="0"
       sodipodi:nodetypes="sscssssssssssssss" />
    <ellipse
       style="opacity:1;fill:#000000;fill-opacity:0.99532712;stroke:#000000;stroke-width:0.46499997;stroke-linecap:round;stroke-linejoin:miter;stroke-miterlimit:4;stroke-dasharray:none;stroke-opacity:0.39534885"
       id="path1404"
       cx="56.720818"
       cy="152.42081"
       rx="2.3563545"
       ry="2.0197322" />
    <path
       style="fill:none;fill-rule:evenodd;stroke:#000000;stroke-width:1.165;stroke-linecap:butt;stroke-linejoin:miter;stroke-opacity:1;stroke-miterlimit:4;stroke-dasharray:none"
       d="m 106.62708,145.12917 c 0.10456,0.002 -0.079,1.95857 0,2.11666 0.0558,0.11156 0.20881,0.15303 0.26459,0.26459 0.0394,0.0789 0,0.17638 0,0.26458 0,0.17639 -0.0428,0.35804 0,0.52917 0.0478,0.19132 0.20222,0.34207 0.26458,0.52916 0.0279,0.0837 0,0.17639 0,0.26459 0,0.17638 0,0.35277 0,0.52916 0,0.52917 0,1.05834 0,1.5875 0,1.05834 0,2.11667 0,3.175 0,0.26459 0,0.52917 0,0.79375 0,0.17639 -0.0558,0.36183 0,0.52917 0.0624,0.18709 0.20222,0.34208 0.26458,0.52917 0.0538,0.16142 0,1.38315 0,1.5875 0,0.0882 -0.0394,0.18569 0,0.26458 0.0558,0.11156 0.22514,0.14626 0.26459,0.26458 0.0989,0.29684 -0.10839,1.63531 0,1.85209 0.11155,0.22311 0.43652,0.29755 0.52916,0.52916 0.0361,0.0903 -0.0716,1.17961 0,1.32292 0.0558,0.11156 0.22514,0.14626 0.26459,0.26458 0.0558,0.16734 0,0.35278 0,0.52917 0,0.0882 -0.0395,0.1857 0,0.26458 0.0558,0.11156 0.2088,0.15303 0.26458,0.26459 0.0394,0.0789 0,0.17638 0,0.26458 0,0.17639 -0.0558,0.36183 0,0.52917 0.0394,0.11832 0.2088,0.15302 0.26458,0.26458 0.0394,0.0789 0,0.17639 0,0.26458 0,0.1197 -0.0353,1.51699 0,1.5875 0.11156,0.22312 0.41761,0.30605 0.52917,0.52917 0.0781,0.15611 -0.0607,0.61176 0,0.79375 0.0624,0.18709 0.20222,0.34208 0.26458,0.52917 0.0279,0.0837 -0.0394,0.18569 0,0.26458 0.0558,0.11156 0.20881,0.15302 0.26459,0.26458 0.0393,0.0787 0,1.4762 0,1.5875"
       id="path1422"
       inkscape:connector-curvature="0" />
    <path
       style="fill:none;fill-rule:evenodd;stroke:#000000;stroke-width:1.165;stroke-linecap:butt;stroke-linejoin:miter;stroke-opacity:1;stroke-miterlimit:4;stroke-dasharray:none"
       d="m 112.31562,144.46771 c 0,0.30868 0,0.61736 0,0.92604 0,0.0441 -0.0244,0.0956 0,0.13229 0.0692,0.10378 0.1954,0.1608 0.26459,0.26458 0.0395,0.0593 -0.0326,0.56368 0,0.66146 0.0197,0.0592 0.1044,0.0765 0.13229,0.13229 0.0148,0.0297 0,0.49773 0,0.52917 0,0.15817 -0.0288,0.70741 0,0.79375 0.0312,0.0935 0.10837,0.16892 0.13229,0.26458 0.03,0.11993 0,0.50778 0,0.66146 0,0.57326 0,1.14653 0,1.71979 0,1.49931 0,2.99861 0,4.49792 0,0.44097 0,0.88194 0,1.32292 0,0.1246 -0.0251,0.5862 0,0.66146 0.0197,0.0592 0.11257,0.0731 0.13229,0.13229 0.0253,0.0758 0,0.53726 0,0.66146 0,0.0441 0,0.0882 0,0.13229 0,0.0441 -0.0227,0.0945 0,0.13229 1.08479,1.44639 0.26459,0.13229 0.39688,0.66146 0.0338,0.13528 0.10494,0.26013 0.13229,0.39687 0.0173,0.0865 0,0.17639 0,0.26459 0,0.22048 0,0.44097 0,0.66145 0,0.0882 0,0.17639 0,0.26459 0,0.0441 -0.0139,0.0904 0,0.13229 0.0312,0.0935 0.0882,0.17639 0.13229,0.26458 0,0.13229 -0.026,0.26716 0,0.39688 0.0193,0.0967 0.10838,0.16892 0.13229,0.26458 0.0295,0.11811 0,0.50833 0,0.66146 0,0.57326 0,1.14653 0,1.71979 0,1.10243 0,2.20486 0,3.30729 0,0.39688 0,0.79375 0,1.19063 0,0.0869 0.0249,0.32223 0,0.39687 -0.0312,0.0936 -0.10111,0.17104 -0.13229,0.26459 -0.026,0.0781 0,0.58754 0,0.66145"
       id="path1424"
       inkscape:connector-curvature="0" />
    <path
       style="fill:none;fill-rule:evenodd;stroke:#000000;stroke-width:1.165;stroke-linecap:butt;stroke-linejoin:miter;stroke-opacity:1;stroke-miterlimit:4;stroke-dasharray:none"
       d="m 117.21042,143.93854 c 0,1.45521 0,2.91042 0,4.36563 0,0.26458 0,0.52916 0,0.79375 0,0.13229 -0.0592,0.27854 0,0.39687 0.0558,0.11156 0.21826,0.14878 0.26458,0.26458 0.0834,0.20849 -0.0529,0.44993 0,0.66146 0.0338,0.13529 0.0985,0.26159 0.13229,0.39688 0.0268,0.10704 0,0.64203 0,0.66146 0,0.0441 -0.0139,0.0904 0,0.13229 0.0312,0.0935 0.11295,0.16789 0.13229,0.26458 0.0287,0.14338 -0.0383,0.50837 0,0.66146 0.0338,0.13528 0.0985,0.26159 0.13229,0.39687 0.0214,0.0856 0,0.17639 0,0.26459 0,0.22048 0,0.44097 0,0.66146 0,0.13229 0,0.26458 0,0.39687 0,0.0441 -0.0197,0.0928 0,0.13229 0.0711,0.14221 0.20554,0.24925 0.26459,0.39688 0.0491,0.12283 0,0.26458 0,0.39687 0,0.44097 0,0.88195 0,1.32292 0,1.01423 0,2.02847 0,3.04271 0,3.175 0,6.35 0,9.525"
       id="path1426"
       inkscape:connector-curvature="0" />
    <path
       style="fill:none;fill-rule:evenodd;stroke:#000000;stroke-width:1.165;stroke-linecap:butt;stroke-linejoin:miter;stroke-opacity:1;stroke-miterlimit:4;stroke-dasharray:none"
       d="m 123.42812,143.93854 c -0.0441,0.26458 -0.099,0.52759 -0.13229,0.79375 -0.0273,0.21879 0,0.44097 0,0.66146 0,0.30868 0,0.61736 0,0.92604 0,1.01424 0,2.02847 0,3.04271 0,0.39687 0,0.79375 0,1.19062 0,0.1323 0.0418,0.27138 0,0.39688 -0.0197,0.0592 -0.11257,0.0731 -0.13229,0.13229 -0.019,0.0571 0,0.87431 0,0.92604 0,0.61736 0,1.23472 0,1.85209 0,0.22048 0,0.44097 0,0.66145 0,0.0882 0.0394,0.1857 0,0.26459 -0.0558,0.11155 -0.2088,0.15302 -0.26458,0.26458 -0.0457,0.0913 0.0328,0.66253 0,0.79375 -0.0239,0.0957 -0.10111,0.17104 -0.13229,0.26458 -0.0418,0.12551 0.0321,0.26854 0,0.39688 -0.0239,0.0957 -0.10112,0.17104 -0.1323,0.26458 -0.0139,0.0418 0,0.0882 0,0.13229 0,0.11078 0.0252,0.56086 0,0.66146 -0.0239,0.0957 -0.10111,0.17104 -0.13229,0.26459 -0.0279,0.0837 0,0.17638 0,0.26458 0,0.22048 0,0.44097 0,0.66146 0,0.13229 0.026,0.26715 0,0.39687 0.0797,0.23944 -0.2143,0.24604 -0.26458,0.39688 -0.0214,0.0643 0,0.79097 0,0.92604 0,0.79375 0,1.5875 0,2.38125 0,1.41111 0,2.82222 0,4.23333 0,0.44097 0,0.88195 0,1.32292 0,0.112 0.0237,0.45804 0,0.52917 -0.16347,0.49041 -0.13229,-0.16126 -0.13229,0.26458"
       id="path1428"
       inkscape:connector-curvature="0" />
    <path
       style="fill:none;fill-rule:evenodd;stroke:#000000;stroke-width:1.165;stroke-linecap:butt;stroke-linejoin:miter;stroke-opacity:1;stroke-miterlimit:4;stroke-dasharray:none"
       d="m 128.19062,144.33542 c -0.20243,0.27434 0.0739,0.63061 0,0.92604 -0.0338,0.13528 -0.0985,0.26159 -0.13229,0.39687 -0.0107,0.0428 0.0139,0.0905 0,0.13229 -0.0624,0.18709 -0.20222,0.34208 -0.26458,0.52917 -0.0279,0.0837 0,0.17639 0,0.26458 0,0.17639 0,0.35278 0,0.52917 0,0.0441 0.0139,0.0905 0,0.13229 -0.0312,0.0935 -0.10111,0.17104 -0.13229,0.26459 -0.0292,0.0874 0,0.78411 0,0.92604 0,0.0882 0.0279,0.18091 0,0.26458 -0.0312,0.0935 -0.10111,0.17104 -0.13229,0.26458 -0.0418,0.12551 0.0321,0.26854 0,0.39688 -0.0239,0.0957 -0.10112,0.17104 -0.1323,0.26458 -0.0139,0.0418 0,0.0882 0,0.13229 0,0.22049 0,0.44097 0,0.66146 0,0.0441 0,0.0882 0,0.13229 0,0.0441 0.0244,0.0956 0,0.1323 -0.0692,0.10377 -0.19539,0.1608 -0.26458,0.26458 -0.0375,0.0563 0.0409,0.71192 0,0.79375 -0.0279,0.0558 -0.1044,0.0765 -0.13229,0.13229 -0.0241,0.0482 0,0.58523 0,0.66146 0,0.10556 0.0265,0.58209 0,0.66146 -0.0312,0.0935 -0.10838,0.16892 -0.13229,0.26458 -0.0439,0.17553 0.0519,0.63801 0,0.79375 -0.0197,0.0592 -0.11258,0.0731 -0.13229,0.13229 -0.0558,0.16734 0.0789,0.3714 0,0.52917 -0.0558,0.11156 -0.1954,0.1608 -0.26459,0.26458 -0.0245,0.0367 0,0.0882 0,0.13229 0,0.0882 0,0.17639 0,0.26459 0,0.22048 0,0.44097 0,0.66146 0,0.0441 0,0.0882 0,0.13229 0,0.0441 0.0197,0.0928 0,0.13229 -0.0279,0.0558 -0.11257,0.0731 -0.13229,0.13229 -0.0418,0.1255 0,0.26458 0,0.39688 0,0.30867 0,0.61736 0,0.92604 0,0.0314 0.0148,0.49951 0,0.52916 -0.0279,0.0558 -0.11257,0.0731 -0.13229,0.1323 -0.0237,0.0711 0,0.41716 0,0.52916 0,0.44097 0,0.88195 0,1.32292 0,0.30868 0,0.61736 0,0.92604 0,0.0882 -0.0279,0.18092 0,0.26458 0.31941,0.95825 -0.0381,-0.20857 0.26458,0.39688 0.0197,0.0394 0,0.0882 0,0.13229 0,0.0882 0,0.17639 0,0.26458 0,0.10815 -0.0224,0.859 0,0.92605 0.0197,0.0592 0.1044,0.0765 0.13229,0.13229 0.0394,0.0789 -0.0214,0.17902 0,0.26458 0.0338,0.13529 0.0985,0.26159 0.1323,0.39688 0.0287,0.11499 0,0.39835 0,0.52916 0,0.30868 0,0.61736 0,0.92604 0,0.26459 0,0.52917 0,0.79375 0,0.0882 0,0.17639 0,0.26459 0,0.0441 0.0197,0.0928 0,0.13229 -0.0558,0.11156 -0.22515,0.14626 -0.26459,0.26458 -0.0235,0.0704 0,0.94479 0,1.05834 0,0.13229 0.0418,0.27137 0,0.39687 -0.0197,0.0592 -0.1044,0.0765 -0.13229,0.13229 -0.0148,0.0297 0,0.49773 0,0.52917 0,0.17639 0,0.35278 0,0.52917 0,0.0882 0.0214,0.17902 0,0.26458 -0.0338,0.13528 -0.0882,0.26458 -0.13229,0.39687"
       id="path1430"
       inkscape:connector-curvature="0" />
  </g>
</svg>
