<?xml version="1.0" encoding="UTF-8"?>
<!-- Created with Inkscape (http://www.inkscape.org/) -->
<svg width="210mm" height="297mm" version="1.1" viewBox="0 0 210 297" xmlns="http://www.w3.org/2000/svg">
<g>
 <g>
  <path transform="scale(.26458)" d="m301.78 9.8359a64.902 55.558 0 0 0-59.947 34.32 86.621 37.376 0 0 0-60.262-10.58 86.621 37.376 0 0 0-86.492 36.271 58.802 45.634 0 0 0-55.002 45.529 58.802 45.634 0 0 0 58.803 45.635 58.802 45.634 0 0 0 37.895-10.805 61.033 47.143 0 0 0 40 11.576 61.033 47.143 0 0 0 38.26-10.434 56.737 55.475 0 0 0 33.713 10.936 56.737 55.475 0 0 0 36.475-13.055 40.659 58.841 0 0 0 24.641 12.129 40.659 58.841 0 0 0 22.01-9.373 28.216 32.762 0 0 0 19.658 9.3047 28.216 32.762 0 0 0 18.443-8.0195 16.162 14.142 0 0 0 12.365 5.0566 16.162 14.142 0 0 0 16.164-14.141 16.162 14.142 0 0 0-16.164-14.143 16.162 14.142 0 0 0-2.666 0.19727 28.216 32.762 0 0 0 0.07422-1.7129 28.216 32.762 0 0 0-23.982-32.348 64.902 55.558 0 0 0 10.918-30.787 64.902 55.558 0 0 0-64.902-55.559z" fill="#f6f9ff" stroke="#000" stroke-linecap="round" stroke-width="1.918"/>
 </g>
 <g>
  <path d="m56.962 38.465c-2.9033 2.0737-6.3738 3.2188-10.332 2.5492-4.9882-0.37171-7.6832-1.6096-10.582-3.3339-1.5768 1.0413-8.9504 2.1034-13.33 1.2447-6.5918-1.2926-11.862-9.0347-11.897-7.6982 0.93531 7.0192 7.8008 10.989 14.99 11.089 3.8892 0.0119 7.5469-0.83166 10.366-2.8734 2.9173 2.0491 6.7874 3.1062 10.678 3.1091 3.6831-0.0015 7.1154-0.90402 10.066-2.8366 2.7637 1.99 5.3792 2.9818 9.2106 2.9379 3.5323-0.0054 6.6321-1.312 9.3332-3.5376 1.8715 2.0746 4.446 3.319 6.8035 3.326 2.0654-4.79e-4 3.7529-0.94493 5.4893-2.5635 1.3916 1.5755 3.4914 2.5422 5.4351 2.5454 1.7933-0.0038 3.3417-0.89064 4.6961-2.2555 0.81128 0.84677 2.7584 2.0405 4.7917 1.221 3.5935-1.4484 2.4223-4.5313 1.7544-5.2114-0.76837 0.43662-0.84616 2.1613-2.2883 3.2255-1.3809 1.0191-3.9312-0.21898-4.3104-0.23557-0.23637 3.09e-4 -2.5604 2.3397-5.0318 2.0901-1.4433-0.11743-3.2743 0.03213-4.8915-1.9399-4.4484 1.0646-4.6547 1.6552-8.2998 1.0129-2.8637-1.5433-3.7629-1.2203-3.9267-2.5331-6.6483 3.3741-9.7428 2.8063-12.044 2.9566-6.7488-0.70926-4.2986-0.74612-6.6817-2.2885z" fill="#e4e4e4"/>
 </g>
          <animateTransform attributeName="transform"
                          attributeType="XML"
                          type="translate"
                          from="-300 0"
                          to="400 0"
                          dur="15s"
                          repeatCount="indefinite"/>
</g>
</svg>
