<?xml version="1.0" encoding="UTF-8"?>
<!-- Created with Inkscape (http://www.inkscape.org/) -->
<svg width="210mm" height="297mm" version="1.1" viewBox="0 0 210 297" xmlns="http://www.w3.org/2000/svg">
 <g>
  <path transform="scale(.26458)" d="m224 50.242a35.103 29.294 0 0 0-32.887 19.152 75.509 32.83 0 0 0-28.732-2.4844 75.509 32.83 0 0 0-75.51 32.83 75.509 32.83 0 0 0 10.584 16.687 45.457 24.244 0 0 0-44.424 24.225 45.457 24.244 0 0 0 38.963 23.965 77.024 65.155 0 0 0 76.951 63.412 77.024 65.155 0 0 0 76.795-61.266 75.256 47.73 0 0 0 39.625 7.2227 75.256 47.73 0 0 0 75.258-47.73 75.256 47.73 0 0 0-75.258-47.729 75.256 47.73 0 0 0-26.385 3.0586 35.103 29.294 0 0 0 0.1211-2.0488 35.103 29.294 0 0 0-35.102-29.295z" fill="#f6f9ff" stroke="#000" stroke-linecap="round" stroke-width="1.7575"/>
 </g>
 <g>
  <path d="m74.969 43.829c-3.7419-0.23583-8.7594-1.1814-10.639-1.5475-1.7763 1.1708-7.3991 13.392-19.496 14.176-12.663 0.90708-16.647-8.4507-20.001-14.578-6.5317 0.07919-9.9797-4.2579-10.534-4.6154-0.05942 2.8515 4.1968 5.6183 10.108 6.0734 0.29524 9.3339 9.255 16.739 20.293 16.744 10.773-0.01087 19.624-7.1276 20.268-16.225 3.1461 1.2436 6.7889 1.9408 10.496 1.9464 10.997 1.34e-4 19.751-5.5244 19.751-12.499-1.5246 0.41882-3.8854 11.555-20.246 10.524z" fill="#e4e4e4"/>
 </g>
</svg>
