<?xml version="1.0" encoding="UTF-8"?>
<!-- Created with Inkscape (http://www.inkscape.org/) -->
<svg width="210mm" height="297mm" version="1.1" viewBox="0 0 210 297" xmlns="http://www.w3.org/2000/svg">
<g>    
 <g>
  <path d="m29.801 0.59806c-5.9043-1.667e-5 -10.691 3.6196-10.691 8.0848 0.0036 0.38754 0.04398 0.77439 0.12092 1.1576-0.21811-0.012499-0.43685-0.019738-0.65577-0.021704-4.9451 2.54e-5 -9.0955 0.88461-9.733 4.0612-0.09098 1.0157-0.47562 2.5542 0.35819 3.4652-0.9309 0.46512-0.7454 0.67456-3.3205 1.2937-3.1648 0.47246-5.3455 2.1838-5.3454 4.8777-4.26e-5 2.6939 2.3932 4.8777 5.3454 4.8777 2.2016-0.0021 4.1766-1.2358 4.9754-3.1078 1.2184 2.2398 3.595 3.6398 6.1831 3.6422 1.1697-0.0024 2.3203-0.29153 3.3471-0.84129 1.4282 1.3765 3.313 2.1445 5.2725 2.1482 1.7805-0.0019 3.5057-0.63496 4.8834-1.7921 1.3195 1.1571 2.8768 1.7762 4.471 1.7772 2.2394-0.0049 4.374-1.2274 5.8818-3.3688 1.7384 1.2425 3.8767 1.9189 6.0787 1.9229 3.6778-0.0024 7.0534-1.8721 8.7741-4.8602 0.30726 0.22063 0.64192 0.3356 0.98082 0.33693 1.2917 2.28e-4 2.3388-1.6152 2.3389-3.608-3.2e-5 -1.9928-1.0472-3.6083-2.3389-3.608-0.07787 0.0011-0.15565 0.0081-0.23306 0.02119-0.68086-2.1131-2.1699-3.9287-4.1925-5.1118 0.14167-0.56628 0.21426-1.1447 0.21652-1.725 1.8e-5 -4.4284-4.0089-8.0183-8.954-8.0181-1.9039 0.00347-3.7569 0.55032-5.2901 1.5611-2.0213-1.9931-5.1526-3.1625-8.4739-3.1647z" fill="#f6f9ff" stroke="#000" stroke-linecap="round" stroke-width=".465"/>
 </g>
 <g>
  <path d="m6.0096 28.235c2.3433-0.31511 4.1293-1.2889 4.8455-3.4445 1.1948 2.482 3.5891 3.8996 6.1772 3.902 1.1697-0.0024 2.3735-0.32697 3.4002-0.87673 1.4282 1.3765 3.0354 2.1563 5.2194 2.1777 1.9813-0.0019 3.5352-0.64677 4.8952-1.8689 1.3726 1.3697 2.865 1.8529 4.4592 1.8539 1.7197-0.03443 3.6889-0.51874 5.8405-3.4515 1.7975 1.3902 4.0184 2.0311 6.2204 2.0351 4.8117-0.33313 7.1479-2.2973 8.6796-5.1436 0.0192 0.01379 0.03851 0.02717 0.05107 0.04004 0.01255 0.01287 0.01835 0.02524 0.01052 0.03701-0.0078 0.01177-0.02928 0.02295-0.07122 0.03344s-0.10437 0.02029-0.19415 0.02931c-0.08978 9e-3 -0.20692 0.01726-0.35828 0.02463-0.15136 0.0074-0.33693 0.01387-0.56359 0.01941-0.22666 0.0055-2.526 1.711-2.8417 1.7145-0.31569 0.0035-4.1284 1.1399-4.5468 1.1412s-5.8999-1.1797-6.4349-1.1807c-0.53495-0.0011-4.6751 2.3117-5.3403 2.3081-0.66518-0.0036-4.0447-0.24481-4.8539-0.25121-0.40457-0.0032-1.1933 1.1445-4.6493 0.79254-3.6231-0.369-4.8983-1.5673-5.3818-1.572-0.96682-0.0093-4.2365 1.0665-5.6582-0.2688-0.82971-0.7793-4.0197-2.688-4.0197-2.688s-3.8767 2.4237-5.399 2.4045c-1.5223-0.01921-3.7675-0.98515-4.6992-1.9057 0.40672 2.7653 3.1002 4.1065 5.213 4.1383z" fill="#e4e4e4"/>
 </g>
         <animateTransform attributeName="transform"
                          attributeType="XML"
                          type="translate"
                          from="-100 50"
                          to="200 50"
                          dur="10s"
                          repeatCount="indefinite"/>
</g>
</svg>
