<?xml version="1.0" encoding="UTF-8"?>
<!-- Created with Inkscape (http://www.inkscape.org/) -->
<svg width="210mm" height="297mm" version="1.1" viewBox="0 0 210 297" xmlns="http://www.w3.org/2000/svg" xmlns:xlink="http://www.w3.org/1999/xlink">
 <defs>
  <linearGradient id="linearGradient1503" x1="168.64" x2="171.47" y1="135.19" y2="166.14" gradientUnits="userSpaceOnUse">
   <stop stop-color="#b9d4da" offset="0"/>
   <stop stop-color="#f4f4f4" offset="1"/>
  </linearGradient>
 </defs>
 <g stroke="#010002" stroke-linecap="round" stroke-width=".27748">
  <g fill="#fff">
   <path d="m48.756 162.8c-0.23525-0.55071-0.05116-0.77951 0.46447-1.1313 0.61935-0.42258 1.6559-0.6137 1.5979 0.0953-0.12976 1.5861 1.809 3.8231 1.415 3.844-0.38267 0.0203-2.9277-1.5213-3.4774-2.808z"/>
   <path d="m53.883 161.64c-0.23525-0.55071-0.05116-0.77951 0.46447-1.1313 0.61935-0.42258 1.6559-0.6137 1.5979 0.0953-0.12976 1.5861 1.809 3.8231 1.415 3.844-0.38267 0.0203-2.9277-1.5213-3.4774-2.808z"/>
   <path d="m56.528 160.98c-0.23525-0.55071-0.05116-0.77951 0.46447-1.1313 0.61935-0.42258 1.6559-0.6137 1.5979 0.0953-0.12976 1.5861 1.809 3.8231 1.415 3.844-0.38267 0.0203-2.9277-1.5213-3.4774-2.808z"/>
   <path d="m59.24 160.05c-0.23525-0.55071-0.05116-0.77951 0.46447-1.1313 0.61935-0.42258 1.6559-0.6137 1.5979 0.0953-0.12976 1.5861 1.809 3.8231 1.415 3.844-0.38267 0.0203-2.9277-1.5213-3.4774-2.808z"/>
   <path d="m62.151 159.26c-0.23525-0.55071-0.05116-0.77951 0.46447-1.1313 0.61935-0.42258 1.6559-0.6137 1.5979 0.0953-0.12976 1.5861 1.809 3.8231 1.415 3.844-0.38267 0.0203-2.9277-1.5213-3.4774-2.808z"/>
   <path d="m65.127 158.6c-0.23525-0.55071-0.05116-0.77951 0.46447-1.1313 0.61935-0.42258 1.6559-0.6137 1.5979 0.0953-0.12976 1.5861 1.809 3.8231 1.415 3.844-0.38267 0.0203-2.9277-1.5213-3.4774-2.808z"/>
   <path d="m68.071 157.94c-0.23525-0.55071-0.05116-0.77951 0.46447-1.1313 0.61935-0.42258 1.6559-0.6137 1.5979 0.0953-0.12976 1.5861 1.809 3.8231 1.415 3.844-0.38267 0.0203-2.9277-1.5213-3.4774-2.808z"/>
   <path d="m71.047 157.21c-0.23525-0.55071-0.05116-0.77951 0.46447-1.1313 0.61935-0.42258 1.6559-0.6137 1.5979 0.0953-0.12976 1.5861 1.809 3.8231 1.415 3.844-0.38267 0.0203-2.9277-1.5213-3.4774-2.808z"/>
  </g>
  <path d="m74.09 156.51c-0.23525-0.55071-0.05116-0.77951 0.46447-1.1313 0.61935-0.42258 1.6559-0.6137 1.5979 0.0953-0.12976 1.5861 1.809 3.8231 1.415 3.844-0.38267 0.0203-2.9277-1.5213-3.4774-2.808z" fill="#fff800"/>
  <path d="m51.303 162.23c-0.23525-0.55071-0.05116-0.77951 0.46447-1.1313 0.61935-0.42258 1.6559-0.6137 1.5979 0.0953-0.12976 1.5861 1.809 3.8231 1.415 3.844-0.38267 0.0203-2.9277-1.5213-3.4774-2.808z" fill="#fff"/>
 </g>
 <g stroke="#000">
  <path d="m82.092 162.91c0.47048-8.935-56.455 6.7122-57.146-3.4932-0.53454-7.8959 57.059-30.048 101.48-36.289 8.0104-1.1255 17.883-2.8002 26.797-2.6077 2.2286 0.0481 17.976-15.701 19.88-17.959 3.3894-4.0215 29.028-16.31 28.999-13.155-0.0263 2.8528-13.109 32.907-8.1706 34.006 2.7705 0.61693 71.025 11.635 72.995 12.053 15.761 3.3437 42.085-37.307 42.57-35.164 1.2935 5.714-8.5291 25.262-8.0334 55.091 0.22745 13.687 3.3784 11.682 3.3784 17.002 0 10.229-31.355-19.014-33.817-17.633-14.187 7.9582-92.567 19.618-101.2 19.428-14.312 0.32626 11.251 21.858-8.7582 15.709-17.749-5.4548-34.608-18.235-38.879-18.021-36.264 1.8168-38.507 1.2234-40.165 1.2455" fill="url(#linearGradient1503)" stroke-linecap="round" stroke-width="1.165"/>
  <ellipse cx="56.721" cy="152.42" rx="2.3564" ry="2.0197" fill="#eaeaea" fill-opacity=".99533" stroke-linecap="round" stroke-opacity=".39535" stroke-width=".465"/>
  <g fill="none" stroke-width="1.165">
   <path d="m106.63 145.13c0.10456 2e-3 -0.079 1.9586 0 2.1167 0.0558 0.11156 0.20881 0.15303 0.26459 0.26459 0.0394 0.0789 0 0.17638 0 0.26458 0 0.17639-0.0428 0.35804 0 0.52917 0.0478 0.19132 0.20222 0.34207 0.26458 0.52916 0.0279 0.0837 0 0.17639 0 0.26459v0.52916 1.5875 3.175 0.79375c0 0.17639-0.0558 0.36183 0 0.52917 0.0624 0.18709 0.20222 0.34208 0.26458 0.52917 0.0538 0.16142 0 1.3832 0 1.5875 0 0.0882-0.0394 0.18569 0 0.26458 0.0558 0.11156 0.22514 0.14626 0.26459 0.26458 0.0989 0.29684-0.10839 1.6353 0 1.8521 0.11155 0.22311 0.43652 0.29755 0.52916 0.52916 0.0361 0.0903-0.0716 1.1796 0 1.3229 0.0558 0.11156 0.22514 0.14626 0.26459 0.26458 0.0558 0.16734 0 0.35278 0 0.52917 0 0.0882-0.0395 0.1857 0 0.26458 0.0558 0.11156 0.2088 0.15303 0.26458 0.26459 0.0394 0.0789 0 0.17638 0 0.26458 0 0.17639-0.0558 0.36183 0 0.52917 0.0394 0.11832 0.2088 0.15302 0.26458 0.26458 0.0394 0.0789 0 0.17639 0 0.26458 0 0.1197-0.0353 1.517 0 1.5875 0.11156 0.22312 0.41761 0.30605 0.52917 0.52917 0.0781 0.15611-0.0607 0.61176 0 0.79375 0.0624 0.18709 0.20222 0.34208 0.26458 0.52917 0.0279 0.0837-0.0394 0.18569 0 0.26458 0.0558 0.11156 0.20881 0.15302 0.26459 0.26458 0.0393 0.0787 0 1.4762 0 1.5875"/>
   <path d="m112.32 144.47v0.92604c0 0.0441-0.0244 0.0956 0 0.13229 0.0692 0.10378 0.1954 0.1608 0.26459 0.26458 0.0395 0.0593-0.0326 0.56368 0 0.66146 0.0197 0.0592 0.1044 0.0765 0.13229 0.13229 0.0148 0.0297 0 0.49773 0 0.52917 0 0.15817-0.0288 0.70741 0 0.79375 0.0312 0.0935 0.10837 0.16892 0.13229 0.26458 0.03 0.11993 0 0.50778 0 0.66146v1.7198 4.4979 1.3229c0 0.1246-0.0251 0.5862 0 0.66146 0.0197 0.0592 0.11257 0.0731 0.13229 0.13229 0.0253 0.0758 0 0.53726 0 0.66146v0.13229c0 0.0441-0.0227 0.0945 0 0.13229 1.0848 1.4464 0.26459 0.13229 0.39688 0.66146 0.0338 0.13528 0.10494 0.26013 0.13229 0.39687 0.0173 0.0865 0 0.17639 0 0.26459v0.66145 0.26459c0 0.0441-0.0139 0.0904 0 0.13229 0.0312 0.0935 0.0882 0.17639 0.13229 0.26458 0 0.13229-0.026 0.26716 0 0.39688 0.0193 0.0967 0.10838 0.16892 0.13229 0.26458 0.0295 0.11811 0 0.50833 0 0.66146v1.7198 3.3073 1.1906c0 0.0869 0.0249 0.32223 0 0.39687-0.0312 0.0936-0.10111 0.17104-0.13229 0.26459-0.026 0.0781 0 0.58754 0 0.66145"/>
   <path d="m117.21 143.94v4.3656 0.79375c0 0.13229-0.0592 0.27854 0 0.39687 0.0558 0.11156 0.21826 0.14878 0.26458 0.26458 0.0834 0.20849-0.0529 0.44993 0 0.66146 0.0338 0.13529 0.0985 0.26159 0.13229 0.39688 0.0268 0.10704 0 0.64203 0 0.66146 0 0.0441-0.0139 0.0904 0 0.13229 0.0312 0.0935 0.11295 0.16789 0.13229 0.26458 0.0287 0.14338-0.0383 0.50837 0 0.66146 0.0338 0.13528 0.0985 0.26159 0.13229 0.39687 0.0214 0.0856 0 0.17639 0 0.26459v0.66146 0.39687c0 0.0441-0.0197 0.0928 0 0.13229 0.0711 0.14221 0.20554 0.24925 0.26459 0.39688 0.0491 0.12283 0 0.26458 0 0.39687v1.3229 3.0427 9.525"/>
   <path d="m123.43 143.94c-0.0441 0.26458-0.099 0.52759-0.13229 0.79375-0.0273 0.21879 0 0.44097 0 0.66146v0.92604 3.0427 1.1906c0 0.1323 0.0418 0.27138 0 0.39688-0.0197 0.0592-0.11257 0.0731-0.13229 0.13229-0.019 0.0571 0 0.87431 0 0.92604v1.8521 0.66145c0 0.0882 0.0394 0.1857 0 0.26459-0.0558 0.11155-0.2088 0.15302-0.26458 0.26458-0.0457 0.0913 0.0328 0.66253 0 0.79375-0.0239 0.0957-0.10111 0.17104-0.13229 0.26458-0.0418 0.12551 0.0321 0.26854 0 0.39688-0.0239 0.0957-0.10112 0.17104-0.1323 0.26458-0.0139 0.0418 0 0.0882 0 0.13229 0 0.11078 0.0252 0.56086 0 0.66146-0.0239 0.0957-0.10111 0.17104-0.13229 0.26459-0.0279 0.0837 0 0.17638 0 0.26458v0.66146c0 0.13229 0.026 0.26715 0 0.39687 0.0797 0.23944-0.2143 0.24604-0.26458 0.39688-0.0214 0.0643 0 0.79097 0 0.92604v2.3812 4.2333 1.3229c0 0.112 0.0237 0.45804 0 0.52917-0.16347 0.49041-0.13229-0.16126-0.13229 0.26458"/>
   <path d="m128.19 144.34c-0.20243 0.27434 0.0739 0.63061 0 0.92604-0.0338 0.13528-0.0985 0.26159-0.13229 0.39687-0.0107 0.0428 0.0139 0.0905 0 0.13229-0.0624 0.18709-0.20222 0.34208-0.26458 0.52917-0.0279 0.0837 0 0.17639 0 0.26458v0.52917c0 0.0441 0.0139 0.0905 0 0.13229-0.0312 0.0935-0.10111 0.17104-0.13229 0.26459-0.0292 0.0874 0 0.78411 0 0.92604 0 0.0882 0.0279 0.18091 0 0.26458-0.0312 0.0935-0.10111 0.17104-0.13229 0.26458-0.0418 0.12551 0.0321 0.26854 0 0.39688-0.0239 0.0957-0.10112 0.17104-0.1323 0.26458-0.0139 0.0418 0 0.0882 0 0.13229v0.66146 0.13229c0 0.0441 0.0244 0.0956 0 0.1323-0.0692 0.10377-0.19539 0.1608-0.26458 0.26458-0.0375 0.0563 0.0409 0.71192 0 0.79375-0.0279 0.0558-0.1044 0.0765-0.13229 0.13229-0.0241 0.0482 0 0.58523 0 0.66146 0 0.10556 0.0265 0.58209 0 0.66146-0.0312 0.0935-0.10838 0.16892-0.13229 0.26458-0.0439 0.17553 0.0519 0.63801 0 0.79375-0.0197 0.0592-0.11258 0.0731-0.13229 0.13229-0.0558 0.16734 0.0789 0.3714 0 0.52917-0.0558 0.11156-0.1954 0.1608-0.26459 0.26458-0.0245 0.0367 0 0.0882 0 0.13229v0.26459 0.66146 0.13229c0 0.0441 0.0197 0.0928 0 0.13229-0.0279 0.0558-0.11257 0.0731-0.13229 0.13229-0.0418 0.1255 0 0.26458 0 0.39688v0.92604c0 0.0314 0.0148 0.49951 0 0.52916-0.0279 0.0558-0.11257 0.0731-0.13229 0.1323-0.0237 0.0711 0 0.41716 0 0.52916v1.3229 0.92604c0 0.0882-0.0279 0.18092 0 0.26458 0.31941 0.95825-0.0381-0.20857 0.26458 0.39688 0.0197 0.0394 0 0.0882 0 0.13229v0.26458c0 0.10815-0.0224 0.859 0 0.92605 0.0197 0.0592 0.1044 0.0765 0.13229 0.13229 0.0394 0.0789-0.0214 0.17902 0 0.26458 0.0338 0.13529 0.0985 0.26159 0.1323 0.39688 0.0287 0.11499 0 0.39835 0 0.52916v0.92604 0.79375 0.26459c0 0.0441 0.0197 0.0928 0 0.13229-0.0558 0.11156-0.22515 0.14626-0.26459 0.26458-0.0235 0.0704 0 0.94479 0 1.0583 0 0.13229 0.0418 0.27137 0 0.39687-0.0197 0.0592-0.1044 0.0765-0.13229 0.13229-0.0148 0.0297 0 0.49773 0 0.52917v0.52917c0 0.0882 0.0214 0.17902 0 0.26458-0.0338 0.13528-0.0882 0.26458-0.13229 0.39687"/>
  </g>
 </g>
</svg>
