<?xml version="1.0" encoding="UTF-8"?>
<!-- Created with Inkscape (http://www.inkscape.org/) -->
<svg width="210mm" height="297mm" version="1.1" viewBox="0 0 210 297" xmlns="http://www.w3.org/2000/svg" xmlns:xlink="http://www.w3.org/1999/xlink">
 <defs>
  <linearGradient id="linearGradient1503" x1="168.64" x2="171.47" y1="135.19" y2="166.14" gradientUnits="userSpaceOnUse">
   <stop stop-color="#b9d4da" offset="0"/>
   <stop stop-color="#f4f4f4" offset="1"/>
  </linearGradient>
 </defs>
 <g fill="#fff" stroke="#010002" stroke-linecap="round" stroke-width=".27748">
  <path d="m51.489 148.54c0.09405-0.59143 0.37169-0.6871 0.99547-0.71039 0.74926-0.028 1.7284 0.36206 1.3019 0.93135-0.95427 1.2736-0.50401 4.1993-0.84864 4.0073-0.33474-0.18654-1.6684-2.8465-1.4487-4.2283z"/>
  <path d="m56.445 150.29c0.09405-0.59142 0.37169-0.68709 0.99547-0.71039 0.74926-0.028 1.7284 0.36207 1.3019 0.93136-0.95428 1.2736-0.50401 4.1993-0.84864 4.0073-0.33474-0.18654-1.6684-2.8465-1.4487-4.2283z"/>
  <path d="m59.037 151.14c0.09405-0.59143 0.37169-0.6871 0.99547-0.71039 0.74926-0.028 1.7284 0.36206 1.3019 0.93135-0.95427 1.2736-0.50401 4.1993-0.84864 4.0073-0.33474-0.18654-1.6684-2.8465-1.4487-4.2283z"/>
  <path d="m61.826 151.8c0.09405-0.59142 0.37169-0.6871 0.99547-0.71039 0.74926-0.028 1.7284 0.36206 1.3019 0.93135-0.95428 1.2736-0.50401 4.1993-0.84864 4.0073-0.33474-0.18655-1.6684-2.8465-1.4487-4.2283z"/>
  <path d="m64.712 152.68c0.09405-0.59142 0.37169-0.6871 0.99547-0.71039 0.74926-0.028 1.7284 0.36206 1.3019 0.93135-0.95427 1.2736-0.50401 4.1993-0.84864 4.0073-0.33474-0.18655-1.6684-2.8465-1.4487-4.2283z"/>
  <path d="m67.584 153.7c0.09405-0.59143 0.37169-0.6871 0.99547-0.71039 0.74926-0.028 1.7284 0.36206 1.3019 0.93135-0.95427 1.2736-0.50401 4.1993-0.84864 4.0073-0.33474-0.18655-1.6684-2.8465-1.4487-4.2283z"/>
  <path d="m70.427 154.71c0.09405-0.59142 0.37169-0.6871 0.99547-0.71039 0.74926-0.028 1.7284 0.36206 1.3019 0.93135-0.95427 1.2736-0.50401 4.1993-0.84864 4.0073-0.33474-0.18655-1.6684-2.8465-1.4487-4.2283z"/>
  <path d="m73.334 155.68c0.09405-0.59142 0.37169-0.6871 0.99547-0.71039 0.74926-0.028 1.7284 0.36207 1.3019 0.93135-0.95428 1.2736-0.50401 4.1993-0.84864 4.0073-0.33474-0.18654-1.6684-2.8465-1.4487-4.2283z"/>
  <path d="m76.28 156.71c0.09405-0.59142 0.37169-0.6871 0.99547-0.71039 0.74926-0.028 1.7284 0.36207 1.3019 0.93135-0.95428 1.2736-0.50401 4.1993-0.84864 4.0073-0.33474-0.18654-1.6684-2.8465-1.4487-4.2283z"/>
  <path d="m58.023 176.09c0.56722 0.19206 0.78113-9e-3 1.0921-0.55038 0.37353-0.65011 0.48409-1.6983-0.21832-1.5858-1.5714 0.25177-3.9513-1.5086-3.9417-1.1142 0.0093 0.3831 1.7427 2.8016 3.068 3.2503z"/>
  <path d="m53.944 149.42c0.09405-0.59142 0.37169-0.6871 0.99547-0.71039 0.74926-0.028 1.7284 0.36206 1.3019 0.93135-0.95427 1.2736-0.50401 4.1993-0.84864 4.0073-0.33474-0.18655-1.6684-2.8465-1.4487-4.2283z"/>
  <path d="m60.222 174.68c0.56722 0.19205 0.78113-9e-3 1.0921-0.55038 0.37353-0.65011 0.48409-1.6983-0.21832-1.5858-1.5714 0.25178-3.9513-1.5086-3.9417-1.1142 0.0093 0.3831 1.7427 2.8016 3.068 3.2503z"/>
  <path d="m62.788 173.55c0.56722 0.19206 0.78113-9e-3 1.0921-0.55038 0.37353-0.65011 0.48409-1.6983-0.21832-1.5858-1.5714 0.25177-3.9513-1.5086-3.9417-1.1142 0.0093 0.3831 1.7427 2.8016 3.068 3.2503z"/>
  <path d="m64.912 172.42c0.56722 0.19205 0.78113-9e-3 1.0921-0.55039 0.37353-0.6501 0.48409-1.6983-0.21832-1.5858-1.5714 0.25178-3.9513-1.5086-3.9417-1.1142 0.0093 0.3831 1.7427 2.8016 3.068 3.2503z"/>
  <path d="m67.483 171.15c0.56722 0.19205 0.78113-9e-3 1.0921-0.55039 0.37353-0.65011 0.48409-1.6983-0.21832-1.5858-1.5714 0.25178-3.9513-1.5086-3.9417-1.1142 0.0093 0.3831 1.7427 2.8016 3.068 3.2503z"/>
  <path d="m69.984 170.04c0.56722 0.19205 0.78113-9e-3 1.0921-0.55039 0.37353-0.6501 0.48409-1.6983-0.21832-1.5858-1.5714 0.25178-3.9513-1.5086-3.9417-1.1142 0.0093 0.3831 1.7427 2.8016 3.068 3.2503z"/>
  <path d="m72.94 169c0.56722 0.19206 0.78113-9e-3 1.0921-0.55038 0.37353-0.65011 0.48409-1.6983-0.21832-1.5858-1.5714 0.25177-3.9513-1.5086-3.9417-1.1142 0.0093 0.3831 1.7427 2.8016 3.068 3.2503z"/>
  <path d="m75.656 167.94c0.56722 0.19206 0.78113-9e-3 1.0921-0.55038 0.37353-0.65011 0.48409-1.6983-0.21832-1.5858-1.5714 0.25178-3.9513-1.5086-3.9417-1.1142 0.0093 0.3831 1.7427 2.8016 3.068 3.2503z"/>
  <path d="m78.254 167.28c0.56722 0.19206 0.78113-9e-3 1.0921-0.55038 0.37353-0.65011 0.48409-1.6983-0.21832-1.5858-1.5714 0.25178-3.9513-1.5086-3.9417-1.1142 0.0093 0.3831 1.7427 2.8016 3.068 3.2503z"/>
  <path d="m81.002 166.22c0.56722 0.19206 0.78113-9e-3 1.0921-0.55038 0.37353-0.65011 0.48409-1.6983-0.21832-1.5858-1.5714 0.25177-3.9513-1.5086-3.9417-1.1142 0.0093 0.3831 1.7427 2.8016 3.068 3.2503z"/>
  <path d="m83.839 165.41c0.56722 0.19205 0.78113-9e-3 1.0921-0.55039 0.37353-0.65011 0.48409-1.6983-0.21832-1.5858-1.5714 0.25178-3.9513-1.5086-3.9417-1.1142 0.0093 0.3831 1.7427 2.8016 3.068 3.2503z"/>
 </g>
 <g stroke="#000">
  <path d="m304.84 172.39c0 10.229-31.355-19.014-33.817-17.633-14.187 7.9582-92.567 19.618-101.2 19.428-14.312 0.32626 11.251 21.858-8.7582 15.709-17.749-5.4548-35.779-21.374-39.682-19.626-15.402 6.8985-63.866 9.7087-64.781 7.9707-1.8722-3.5545 29.267-15.416 26.152-18.012-6.8741-5.7273-55.628-16.615-56.319-26.82-0.53454-7.8959 25.245-6.0188 60.133-7.6092 14.765-0.67311 57.735-0.39311 66.649-5.2823 1.9544-1.0719 17.976-15.701 19.88-17.959 3.3894-4.0215 29.028-16.31 28.999-13.155-0.0263 2.8528-13.109 32.907-8.1706 34.006 2.7705 0.61693 71.025 11.635 72.995 12.053 15.761 3.3437 42.085-37.307 42.57-35.164 1.2935 5.714-8.5291 25.262-8.0334 55.091 0.22745 13.687 3.3784 11.682 3.3784 17.002z" fill="url(#linearGradient1503)" stroke-linecap="round" stroke-width="1.165"/>
  <ellipse cx="59.714" cy="139.89" rx="2.3564" ry="2.0197" fill-opacity=".99533" stroke-linecap="round" stroke-opacity=".39535" stroke-width=".465"/>
  <g fill="none" stroke-width="1.2173">
   <path d="m106.18 141.37c0.10445-2e-3 -3e-3 2.1421 0.0825 2.312 0.06 0.11987 0.21441 0.15972 0.27444 0.27958 0.0423 0.0848 7e-3 0.19266 0.0103 0.289 7e-3 0.19268-0.0287 0.39261 0.0206 0.57801 0.0551 0.20728 0.21518 0.36643 0.28472 0.56857 0.0312 0.0904 7e-3 0.19267 0.0103 0.28901l0.0206 0.57799 0.0619 1.734 0.12375 3.468 0.0309 0.867c7e-3 0.19267-0.0416 0.39721 0.0206 0.57801 0.0695 0.20213 0.21519 0.36645 0.28472 0.56858 0.06 0.1744 0.0539 1.5108 0.0619 1.734 3e-3 0.0963-0.032 0.20422 0.0103 0.289 0.06 0.11986 0.23044 0.15174 0.27443 0.27957 0.11031 0.32071-0.0445 1.7901 0.0722 2.023 0.12005 0.23972 0.44733 0.30947 0.54884 0.55915 0.0396 0.0974-0.0255 1.291 0.0516 1.445 0.06 0.11986 0.23044 0.15173 0.27443 0.27957 0.0622 0.18079 0.0138 0.38533 0.0206 0.578 3e-3 0.0963-0.0322 0.20425 0.0103 0.289 0.06 0.11986 0.21439 0.15971 0.27442 0.27958 0.0425 0.0847 7e-3 0.19266 0.0103 0.28899 7e-3 0.19267-0.0416 0.39722 0.0206 0.57802 0.044 0.12783 0.2144 0.15969 0.27443 0.27957 0.0424 0.0847 7e-3 0.19267 0.0103 0.28899 5e-3 0.13075 0.0238 1.6582 0.0619 1.734 0.12005 0.23974 0.42879 0.31942 0.54884 0.55916 0.084 0.16773-0.0367 0.67038 0.0309 0.867 0.0696 0.20214 0.21519 0.36645 0.28473 0.56858 0.0311 0.0905-0.032 0.20423 0.0103 0.289 0.06 0.11987 0.2144 0.1597 0.27443 0.27958 0.0423 0.0845 0.0575 1.6124 0.0619 1.734"/>
   <path d="m111.83 140.45 0.0361 1.0115c2e-3 0.0482-0.0207 0.10529 5e-3 0.1445 0.0731 0.11089 0.20132 0.16868 0.27443 0.27958 0.0417 0.0634-0.0106 0.61686 0.0258 0.7225 0.022 0.064 0.10719 0.0798 0.13721 0.13978 0.016 0.032 0.0194 0.54367 0.0206 0.57801 6e-3 0.17277-1e-3 0.77372 0.0309 0.86699 0.0348 0.10103 0.11476 0.18066 0.14237 0.2843 0.0346 0.12993 0.0198 0.55464 0.0258 0.7225l0.067 1.8785 0.17531 4.913 0.0516 1.445c5e-3 0.1361-2e-3 0.64119 0.0258 0.72251 0.022 0.064 0.11522 0.0758 0.13722 0.13978 0.0282 0.0819 0.0209 0.58684 0.0258 0.7225l5e-3 0.1445c2e-3 0.0482-0.019 0.10403 5e-3 0.1445 1.1392 1.5412 0.26927 0.13507 0.42195 0.70836 0.0391 0.14656 0.11489 0.2804 0.14751 0.42878 0.0207 0.0938 7e-3 0.19267 0.0103 0.28902l0.0258 0.72249 0.0103 0.28901c2e-3 0.0482-0.0104 0.0992 5e-3 0.1445 0.0348 0.10101 0.0949 0.18952 0.14237 0.28428 5e-3 0.1445-0.0156 0.29274 0.0155 0.4335 0.0231 0.10494 0.11478 0.18066 0.14237 0.28429 0.0341 0.12796 0.0198 0.55524 0.0258 0.72251l0.067 1.8785 0.12891 3.6125 0.0464 1.3005c3e-3 0.0949 0.0375 0.35109 0.0155 0.43351-0.0275 0.10335-0.0943 0.19042-0.12174 0.29372-0.0229 0.0863 0.0229 0.64176 0.0258 0.72249"/>
   <path d="m116.69 139.69 0.17016 4.7685 0.0309 0.86699c5e-3 0.1445-0.0482 0.30636 0.0155 0.4335 0.06 0.11986 0.22367 0.15474 0.27441 0.27957 0.0914 0.22477-0.0352 0.49334 0.0258 0.72251 0.0391 0.14656 0.10853 0.28222 0.14753 0.42879 0.0309 0.11596 0.025 0.70128 0.0258 0.7225 2e-3 0.0482-0.0104 0.0992 5e-3 0.1445 0.0348 0.10101 0.11929 0.17936 0.14237 0.28429 0.0343 0.15558-0.0185 0.55665 0.0258 0.72251 0.0391 0.14655 0.10854 0.28221 0.14752 0.42878 0.0247 0.0928 7e-3 0.19266 0.0103 0.289l0.0258 0.7225 0.0155 0.4335c2e-3 0.0482-0.0161 0.10207 5e-3 0.1445 0.0765 0.15281 0.2149 0.26493 0.2796 0.42409 0.0538 0.13241 0.0103 0.28899 0.0155 0.43349l0.0516 1.445 0.11859 3.3235 0.37125 10.404"/>
   <path d="m122.9 139.47c-0.0337 0.29057-0.0783 0.5798-0.1011 0.87171-0.0188 0.23995 0.0172 0.48167 0.0258 0.7225l0.0361 1.0115 0.11859 3.3235 0.0464 1.3005c5e-3 0.1445 0.0523 0.29493 0.0155 0.4335-0.0174 0.0654-0.10952 0.0839-0.1269 0.14921-0.0168 0.063-0.0419 1.4748-0.0399 1.5313 9e-3 0.26019 0.0575-1.0379 0.1482 1.5032l0.0258 0.72249c3e-3 0.0963 0.0466 0.20144 0.0103 0.28902-0.0513 0.12382-0.20246 0.17457-0.25379 0.29842-0.0421 0.10136 0.0586 0.7225 0.0309 0.86699-0.0201 0.10539-0.0943 0.19043-0.12174 0.29371-0.0368 0.13858 0.0425 0.29218 0.0155 0.43351-0.0202 0.10538-0.0943 0.19043-0.12175 0.2937-0.0123 0.0462 3e-3 0.0963 5e-3 0.1445 4e-3 0.12101 0.047 0.61172 0.0258 0.72251-0.0202 0.10539-0.0943 0.19043-0.12173 0.29372-0.0246 0.0924 7e-3 0.19266 0.0103 0.289l0.0258 0.7225c5e-3 0.14449 0.0364 0.29087 0.0155 0.43349 0.0889 0.25871-0.20434 0.27638-0.24865 0.44294-0.0189 0.071 0.0308 0.86396 0.0361 1.0115l0.0928 2.601 0.165 4.624 0.0516 1.445c4e-3 0.12234 0.0415 0.49946 0.0206 0.57801-0.14407 0.54149-0.13834-0.17144-0.12174 0.29371"/>
   <path d="m127.67 139.74c-0.19137 0.30687 0.0983 0.68617 0.0361 1.0115-0.0285 0.14897-0.0881 0.28924-0.11658 0.4382-9e-3 0.0472 0.0174 0.0983 5e-3 0.14451-0.055 0.20657-0.18853 0.38085-0.24349 0.58743-0.0246 0.0924 7e-3 0.19266 0.0103 0.28899l0.0206 0.57801c2e-3 0.0482 0.0174 0.0983 5e-3 0.14449-0.0275 0.10325-0.0943 0.19044-0.12174 0.29372-0.0258 0.0965 0.0306 0.85648 0.0361 1.0115 3e-3 0.0963 0.0349 0.19661 0.0103 0.28899-0.0275 0.10324-0.0943 0.19043-0.12175 0.29371-0.0368 0.13858 0.0426 0.29218 0.0155 0.43351-0.0202 0.10538-0.0943 0.19042-0.12175 0.2937-0.0123 0.0462 3e-3 0.0963 5e-3 0.1445l0.0258 0.72251 5e-3 0.1445c2e-3 0.0482 0.0281 0.10354 5e-3 0.14451-0.065 0.11581-0.18877 0.1826-0.25379 0.29842-0.0353 0.0628 0.0686 0.77616 0.0309 0.867-0.0257 0.0619-0.10123 0.0873-0.1269 0.14921-0.0222 0.0535 0.0228 0.63924 0.0258 0.72251 4e-3 0.11529 0.0492 0.63486 0.0258 0.7225-0.0275 0.10324-0.1016 0.18836-0.12173 0.29371-0.0369 0.19329 0.0766 0.69503 0.0309 0.86699-0.0174 0.0654-0.10953 0.0839-0.1269 0.14921-0.0491 0.18477 0.0932 0.40288 0.0206 0.57802-0.0513 0.12383-0.18879 0.18259-0.25381 0.29842-0.023 0.0409 3e-3 0.0963 5e-3 0.14449l0.0103 0.28901 0.0258 0.7225 5e-3 0.1445c2e-3 0.0482 0.0233 0.10066 5e-3 0.1445-0.0257 0.0619-0.10952 0.0839-0.12689 0.14921-0.0368 0.13857 0.0103 0.28899 0.0155 0.43351l0.0361 1.0115c1e-3 0.0343 0.0343 0.54507 0.0206 0.57799-0.0257 0.062-0.10952 0.0839-0.1269 0.14922-0.0209 0.0785 0.0163 0.45566 0.0206 0.57799l0.0516 1.445 0.0361 1.0115c3e-3 0.0963-0.0208 0.19862 0.0103 0.28899 0.35619 1.0353-0.0462-0.22645 0.27957 0.42409 0.0212 0.0424 3e-3 0.0963 5e-3 0.1445l0.0103 0.289c4e-3 0.11812 0.0111 0.93907 0.0361 1.0115 0.022 0.064 0.1072 0.0798 0.13722 0.13979 0.0425 0.0847-0.0144 0.19631 0.0103 0.289 0.039 0.14657 0.10853 0.28223 0.14753 0.4288 0.0332 0.12457 0.0155 0.43511 0.0206 0.57799l0.0361 1.0115 0.0309 0.867 0.0103 0.28901c2e-3 0.0482 0.0233 0.10066 5e-3 0.1445-0.0513 0.12384-0.21905 0.16778-0.25381 0.29842-0.0207 0.0777 0.0368 1.032 0.0413 1.156 5e-3 0.1445 0.0523 0.29493 0.0155 0.4335-0.0174 0.0654-0.10123 0.0873-0.12689 0.14922-0.0136 0.033 0.0194 0.54365 0.0206 0.578l0.0206 0.578c3e-3 0.0963 0.0284 0.19478 0.0103 0.289-0.0285 0.14897-0.0777 0.29214-0.11659 0.4382"/>
  </g>
 </g>
</svg>
