<?xml version="1.0" encoding="UTF-8"?>
<!-- Created with Inkscape (http://www.inkscape.org/) -->
<svg width="210mm" height="297mm" version="1.1" viewBox="0 0 210 297" xmlns="http://www.w3.org/2000/svg">
 <g fill="none" stroke-linecap="round">
  <path d="m63.448 117.81 11.682-11.76-1.2807 11.359 7.4055 1.3364 3.931 0.93544 8.5526-10.131-1.8709 13.656 0.93544 5.6382 1.7373 4.8364-8.8755-6.5481-9.811 3.3409-1.392 7.6172-6.6037-5.0781-20.179-0.42642 13.497-4.7027-16.17-6.0391z" stroke="#0f0"/>
  <ellipse cx="57.663" cy="122.74" rx="1.8041" ry="1.47" stroke="#00fc00"/>
  <g stroke="#00fe00" stroke-width=".2">
   <path d="m46.506 122.93 0.80813 0.0313 0.62593 0.19829-1.1756 1.873z"/>
   <path d="m48.237 123.28 0.78793 0.18225 0.57765 0.31214-1.5059 1.6194z"/>
   <path d="m49.819 123.95 0.7752 0.23046 0.55732 0.34713-1.6029 1.5235z"/>
   <path d="m51.589 124.47 0.76913 0.24996 0.54838 0.3611-1.6408 1.4826z"/>
   <path d="m53.226 125.2 0.76252 0.26948 0.539 0.37495-1.6781 1.4403z"/>
   <path d="m55.301 125.39 0.75474 0.29055 0.52838 0.38977-1.7174 1.3931z"/>
   <path d="m48.786 132.09 0.75474-0.29055 0.52838-0.38977-1.7174-1.3931z"/>
   <path d="m50.457 131.49 0.75474-0.29055 0.52838-0.38977-1.7174-1.3931z"/>
   <path d="m52.194 131.06 0.75474-0.29055 0.52838-0.38977-1.7174-1.3931z"/>
   <path d="m53.797 130.62 0.55429-0.1235 0.46156-0.25614-1.4167-1.3931z"/>
   <path d="m55.434 130.15 0.6211-0.25714 0.49497-0.18932-1.4167-1.0256z"/>
   <path d="m57.105 126.09 0.5877 0.19033 0.32792 0.48999-1.3499 1.1927z"/>
  </g>
 </g>
</svg>
