<?xml version="1.0" encoding="UTF-8"?>
<!-- Created with Inkscape (http://www.inkscape.org/) -->
<svg width="210mm" height="297mm" version="1.1" viewBox="0 0 210 297" xmlns="http://www.w3.org/2000/svg" xmlns:xlink="http://www.w3.org/1999/xlink">
 <defs>
  <linearGradient id="linearGradient4615" x1="161.42" x2="162.85" y1="73.196" y2="37.114" gradientUnits="userSpaceOnUse">
   <stop stop-color="#72ace4" offset="0"/>
   <stop stop-color="#fefefe" offset="1"/>
  </linearGradient>
 </defs>
 <path transform="matrix(1 0 0 1.3512 .26727 -44.554)" d="m-0.14313 40.956c10.471 2.7618 20.943 5.5236 27.559 4.1872 6.6165-1.3365 9.3783-6.7711 10.893-9.4436 1.5145-2.6725 1.7818-2.5834 5.744-0.04584 3.9622 2.5376 11.628 7.5296 16.929 8.2867s8.2409-2.7174 9.8891-4.5437c1.6482-1.8263 2.0046-2.0045 6.6777-0.62478s13.679 4.3223 19.504 4.1007c5.8247-0.22158 8.3406-3.4315 9.5433-5.124 1.2027-1.6925 1.0245-1.7816 5.4418-0.27986 4.4173 1.5018 13.579 4.6454 19.414 4.1998 5.8354-0.4456 8.419-4.4547 9.7107-6.5928 1.2917-2.1381 1.2917-2.4054 3.0717-0.71438 1.78 1.691 5.3472 5.3473 10.238 5.597s11.323-3.0117 14.352-4.6597c3.029-1.6481 2.7617-1.7371 4.3217-0.04343 1.56 1.6937 4.9434 5.1661 9.5317 5.4333 4.5883 0.26719 10.379-2.6728 13.453-4.2318s3.43-1.7373 4.231 0.13188 2.0496 5.7931 3.7808 7.226c1.7312 1.4329 3.9464 0.37901 6.1616-0.67486l0.25053 49.388-210.43-0.0131s-0.26726-51.559-0.26726-51.559z" fill="url(#linearGradient4615)" fill-rule="evenodd" stroke="#000" stroke-width=".465"/>
</svg>
